<svg xmlns="http://www.w3.org/2000/svg" width="400" height="430.106" viewBox="0 0 400 NaN" fill-rule="evenodd" xmlns:v="https://vecta.io/nano"><path d="M2.151 315.591v8.244h9.767l9.769-.179.001-8.065-.001-8.064c-.002-.117-3.379-.179-9.769-.179H2.151v8.243m350.089 11.411c-5.252.617-7.986 1.17-11.828 2.393-5.273 1.678-8.901 3.784-12.196 7.079-1.956 1.956-2.946 3.436-4.731 7.074-.279.571-1.284 3.936-1.45 4.857-2.067 11.5 3.191 21.582 13.359 25.613.592.235 1.152.491 1.246.57s.283.143.421.143.505.114.815.253c.657.295 4.793 1.706 5.583 1.905.295.074 1.223.336 2.061.581s2.934.784 4.659 1.196l4.048 1.006c.502.141 1.059.256 1.239.256s.737.115 1.239.255a55.84 55.84 0 0 0 2.256.557 46.38 46.38 0 0 1 1.881.457l1.882.535c7.842 2.218 10.932 5.018 10.932 9.909 0 6.976-10.255 11.211-19.982 8.25-5.379-1.637-8.878-6.154-9.044-11.675-.005-.179-2.514-.216-12.238-.18l-12.231.046-.059 1.165c-.15 2.968 1.156 8.595 2.784 11.998 3.351 7.005 10.473 12.202 19.408 14.161l1.971.454c1.337.323 3.186.619 5.018.805l3.343.362c2.301.261 13.333.146 15.474-.163 9.481-1.365 15.335-3.317 20.816-6.94 9.93-6.565 13.385-17.752 9.125-29.548-2.789-7.72-10.436-12.804-24.027-15.972l-2.329-.545-1.882-.418c-1.015-.204-3.011-.638-4.48-.975l-1.972-.444c-.67-.147-2.063-.512-4.39-1.152-8.387-2.306-12.266-5.928-11.31-10.559.546-2.643 3.125-5.332 6.023-6.278 2.519-.822 2.652-.843 5.352-.843 7.294 0 11.995 3.244 12.726 8.781l.201 1.524 12.3.046 12.3.046.09-.471c.231-1.212-.191-5.481-.769-7.775-1.383-5.484-4.713-9.811-9.947-12.927-2.05-1.22-2.672-1.522-4.879-2.372-1.575-.606-2.128-.798-2.912-1.011l-1.613-.456c-1.543-.451-3.043-.797-3.447-.795-.223.001-.97-.116-1.66-.261-3.877-.812-14.277-1.093-19.176-.517m-271.864.616c-5.431.316-10.083.997-14.247 2.086-2.969.776-3.873 1.048-4.928 1.482l-.896.368-1.344.547c-10.107 4.096-17.094 12.186-20.336 23.544l-.469 1.626c-.09.302-.163.701-.163.884s-.113.824-.252 1.421c-1.4 6.049-1.398 18.102.005 25.012.548 2.696.663 3.168 1.198 4.928 3.058 10.048 8.937 17.059 18.045 21.516 3.008 1.472 3.578 1.701 6.81 2.731 2.153.686 5.973 1.544 8.154 1.831l2.33.336c4.32.67 6.933.739 27.912.738l20.565-.001v-29.392-29.392l-11.783.046-11.783.046-.09 20.776-.09 20.775-.448.103c-.812.186-15.441-.105-16.568-.329-5.804-1.156-11.232-4.439-14.697-8.888-.958-1.231-2.785-4.042-2.785-4.285 0-.044-.23-.59-.51-1.213-2.933-6.506-3.303-18.727-.722-23.845a1.48 1.48 0 0 0 .157-.518c0-.114.44-1.114.977-2.223 3.203-6.613 9.317-11.282 16.854-12.872 2.914-.615 4.264-.653 22.904-.653h18.584v-8.692-8.692l-19.937.027-22.447.172m59.23 8.493v8.692l18.593.001c21.439.002 21.491.005 25.941 1.474 7.07 2.335 12.389 7.5 14.906 14.475 2.9 8.039 2.395 18.218-1.268 25.537-2.477 4.949-7.582 9.684-12.384 11.485-2.007.753-3.674 1.241-5.436 1.592-1.851.368-16.311.425-16.54.065-.083-.131-.152-9.533-.154-20.893l-.002-20.654h-11.828-11.828v29.391 29.391l20.564.003c23.463.003 25.383-.084 32.482-1.47l2.689-.526c.443-.087 1.008-.23 1.254-.317a30.2 30.2 0 0 1 1.613-.467 25.31 25.31 0 0 0 1.837-.557l3.002-1.146c6.185-2.466 12.046-7.075 15.516-12.204.676-.999 2.584-4.233 2.584-4.38 0-.045.229-.587.51-1.203.884-1.945 1.487-3.55 1.901-5.063.529-1.935.626-2.316.887-3.495 1.621-7.329 1.829-16.876.539-24.731-.429-2.611-.525-3.037-1.453-6.452-.371-1.368-1.032-3.12-1.874-4.973-.281-.616-.51-1.158-.51-1.203s-.443-.85-.984-1.788c-5.332-9.236-14.532-15.336-26.615-17.647l-1.971-.386c-5.203-1.045-9.977-1.227-32.392-1.235l-19.579-.008v8.692m116.735-8.378c-.109.347-.534 1.454-.876 2.285a70.05 70.05 0 0 0-.712 1.882l-1.795 4.749c-.125.295-.683 1.787-1.242 3.315l-1.254 3.316c-.264.597-.532 1.289-1.319 3.405l-1.283 3.405-.987 2.598-1.106 2.912-.426 1.12-.974 2.554-.825 2.196-.727 1.881c-.254.571-3.871 10.162-4.326 11.47-.103.295-.256.614-.341.708s-.155.283-.155.421-.11.504-.245.815c-.289.669-.901 2.25-1.675 4.328-.147.394-.34.857-.428 1.028s-.161.401-.161.511-.114.453-.253.764-.51 1.25-.824 2.088l-1.881 4.928a71.41 71.41 0 0 0-.712 1.882l-1.715 4.57c-.386.914-.919 2.319-1.599 4.211l-.977 2.599c-.229.519-.522 1.265-1.089 2.778-.72 1.918-.855 2.262-1.004 2.551-.089.171-.162.413-.162.538s-.113.439-.249.7-.413.946-.617 1.523l-.751 2.035c-.209.542-.452 1.216-.539 1.496s-.249.62-.36.754c-.492.593-.023.618 11.581.618h11.553l.16-.404c.088-.221.416-1.25.73-2.285l.713-2.24c.135-.336 1.171-3.578 2.378-7.437l.673-2.061c.077-.197.321-.923.541-1.613s.491-1.313.601-1.386 8.044-.133 17.631-.134l17.431-.003.355.582c.195.321.355.721.356.89s.114.573.252.896.832 2.403 1.54 4.621l1.529 4.66c.132.345.616 1.816 1.075 3.27l.835 2.644h13.144c13.738 0 13.518.014 13.092-.836a16.77 16.77 0 0 1-.56-1.315l-.855-2.24-1.431-3.763c-.416-1.149-2.623-6.955-2.794-7.348-.36-.832-.609-1.462-.745-1.882-.079-.246-.316-.891-.525-1.434s-.547-1.469-.752-2.06-.443-1.152-.529-1.246-.158-.283-.158-.421-.11-.505-.244-.815c-.276-.638-.759-1.87-1.1-2.805l-1.257-3.316-.713-1.881-1.076-2.868-.582-1.523-.496-1.255c-.122-.295-.56-1.465-.973-2.598l-.951-2.509a33.69 33.69 0 0 1-.848-2.151c-.086-.246-.327-.891-.536-1.433s-.548-1.47-.752-2.061-.443-1.152-.529-1.246-.158-.283-.158-.421-.11-.504-.244-.815c-.338-.78-.623-1.525-1.902-4.955l-.712-1.882a78.72 78.72 0 0 1-.436-1.12l-1.457-3.796-1.547-4.122-1.406-3.686c-.282-.69-.851-2.182-1.265-3.316l-.975-2.598a100.01 100.01 0 0 1-1.097-2.823l-.538-1.433-.559-1.479-.853-2.24-1.097-2.912c-.501-1.355-.858-2.201-1.021-2.42-.304-.406-28.779-.318-28.908.09m-256 4.177c-.097.06-.144 17.211-.117 42.384l.045 42.283h11.649 11.648v-42.348-42.349l-11.531-.035c-6.342-.019-11.604.01-11.694.065m270.146 13.699l.388 1.344.536 1.882.453 1.523c.083.247.285.932.45 1.524l.524 1.792.521 1.747.593 2.061.522 1.747c.124.395.36 1.201.524 1.793l.45 1.523c.083.246.285.932.45 1.523l.524 1.792.511 1.703 1.578 5.286.97 3.316 1.083 3.602a7.16 7.16 0 0 1 .313 1.612l.037.789-11.519.047c-10.211.04-11.532.015-11.625-.229-.102-.265.356-1.837 1.981-6.807l1.527-4.749.998-3.046c.128-.345.699-2.079 1.267-3.854l2.05-6.362 2.047-6.362 1.283-3.814c.139-.324.253-.752.253-.953 0-1.1 1.023-1.436 1.311-.43m89.414 54.873a1.48 1.48 0 0 0 .628 0c.172-.045.031-.082-.314-.082s-.486.037-.314.082m0 17.204a1.48 1.48 0 0 0 .628 0c.172-.045.031-.082-.314-.082s-.486.037-.314.082m11.873 1.614l-3.092.506-3.315.53-2.285.341c-.345.039-1.151.162-1.792.274-1.724.301-7.127 1.159-9.229 1.466l-2.778.434-2.33.359c-1.872.248-1.845.233-1.715.957.32 1.77.675 3.969.766 4.746.121 1.026.269 1.113 1.294.752.426-.151 1.013-.274 1.303-.274s1.188-.117 1.994-.26c1.654-.294 4.437-.736 9.082-1.445l3.405-.539 3.405-.539 3.405-.541 2.916-.472c.766-.121 1.468-.266 1.56-.323.161-.1-.198-3.37-.407-3.708-.052-.083-.115-.554-.141-1.046-.083-1.555-.079-1.553-2.046-1.218" fill="#0c347c"/><path d="M191.946.18c-.339.081-1.589.24-2.778.353-4.143.396-9.926 1.178-11.525 1.56l-.403.096v23.615l-.273 23.841c-.332.275 2.512 3.961-18.465-23.928l-7.281-9.678c-1.707-2.267-3.233-4.145-3.393-4.175-.751-.138-13.957 7.15-13.957 7.702 0 .097.47.795 1.045 1.551.97 1.277 2.464 3.319 5.33 7.288l7.228 9.946 7.814 10.753 9.38 12.903 5.139 7.079 9.036 12.438 6.9 9.498 7.066 9.695.368.448-.038-50.535-.307-50.566c-.148-.017-.547.035-.886.116m14.416.025c-.05.134-.071 22.857-.046 50.496l.046 50.253 2.859-3.927 4.409-6.077 11.516-15.86 12.95-17.801 3.447-4.749 1.387-1.913 4.17-5.735 8.724-12.007 8.902-12.203c.378-.502.686-.993.686-1.092 0-.54-12.844-7.766-13.792-7.76-.275.001-.795.683-6.218 8.152l-8.208 11.29-6.123 8.423-3.404 4.66-3.254 4.525c-1.49 2.229-1.644.865-1.658-14.635a352.02 352.02 0 0 0-.168-9.962l-.29-13.377-.128-8.717-.556-.097c-4.291-.75-5.825-.958-12.043-1.63-1.39-.151-2.66-.324-2.821-.386-.171-.066-.333-.011-.387.129m15.625 20.001c-.045.173-.082.031-.082-.314s.037-.486.082-.313.045.455 0 .627m-100.034 7.979c-3.246 2.815-4.773 4.224-7.571 6.987-1.701 1.679-3.092 3.129-3.092 3.222 0 .211.041.268 4.127 5.871l6.915 9.498 7.883 10.843 5.127 7.079a186.43 186.43 0 0 0 2.097 2.867c1.786 2.392 1.727 2.637-.473 1.952l-6.142-1.883-2.24-.686-1.792-.544-1.792-.55-2.599-.796-2.329-.717c-.247-.084-.932-.291-1.524-.461a86.96 86.96 0 0 1-2.632-.821c-.857-.281-1.685-.512-1.84-.512s-.422-.074-.593-.164c-.296-.157-.94-.361-3.985-1.268l-2.419-.736-2.061-.631-1.703-.524a71.06 71.06 0 0 0-1.792-.534c-.591-.169-1.639-.49-2.329-.715-6.563-2.14-5.705-2.355-7.888 1.973-1.743 3.456-3.765 7.979-4.568 10.216-.212.591-.521 1.343-.686 1.67-.321.638-.037 1.107.67 1.107.15 0 .598.116.996.258.802.287 3.012.969 4.666 1.44l1.792.539a176.5 176.5 0 0 0 2.598.803l2.688.821 2.33.71 5.824 1.793c.395.128 1.201.371 1.793.54s1.397.414 1.792.546 1.563.495 2.598.808l5.466 1.672 1.792.55 1.792.547 1.703.515 2.151.66c1.92.611 2.941.856 3.116.748.09-.056.107-.009.037.105-.078.127-.005.207.19.207.175 0 .644.114 1.041.254s1.57.508 2.605.819l2.33.718c.246.085 1.052.329 1.792.544l2.688.813 3.226.987 2.598.793 2.33.717 2.509.759 1.613.499 2.33.706 2.329.724c.395.135 1.04.337 1.434.45 1.192.339 2.181.637 5.645 1.7l3.943 1.197a82.37 82.37 0 0 1 1.882.583l2.329.723 3.584 1.09 1.793.536c.591.172 1.236.376 1.433.453.533.209 2.815.885 2.987.885.326 0 .084-.412-1.508-2.56l-2.912-3.986-3.689-5.085-7.24-9.964-5.468-7.527-12.902-17.742-11.916-16.398-6.106-8.399-2.597-3.584-2.405-3.339c-2.763-3.856-2.354-3.599-3.771-2.371m100.037.175c-.042.222-.077.041-.077-.403s.035-.625.077-.403.043.584 0 .806m52.189 1.434l-2.765 3.808-16.028 22.043-11.192 15.412-3.726 5.108-3.853 5.287-3.116 4.301-4.224 5.824-2.738 3.764-3.315 4.569-4.329 5.972c-1.243 1.707-2.218 3.147-2.165 3.199.091.091 1.104-.187 4.061-1.117l3.136-.966 2.778-.842 2.24-.698 2.329-.704 1.793-.539c.394-.129 1.523-.479 2.508-.778l3.674-1.117 3.226-.984 3.226-.983 2.598-.801a82.26 82.26 0 0 1 1.793-.544c.591-.172 1.236-.371 1.433-.442s.843-.271 1.434-.444l3.584-1.087 1.792-.542 2.33-.719 2.599-.792 2.598-.792 2.33-.719 1.792-.55c.394-.127 1.443-.446 2.33-.709l2.33-.72a49.95 49.95 0 0 1 1.792-.546l1.792-.54c.394-.128 1.563-.487 2.598-.798l2.33-.718c.247-.085 1.053-.329 1.792-.544l2.688-.811 5.825-1.777 2.33-.709 2.24-.694 5.914-1.817 2.419-.732c1.592-.46 4.378-1.328 5.203-1.621.398-.141.846-.257.996-.257.587 0 .975-.469.762-.923a20.74 20.74 0 0 1-.473-1.138c-.725-1.884-1.436-3.651-1.731-4.301-.179-.394-.544-1.241-.812-1.881-.477-1.138-3.032-6.326-3.863-7.841-.512-.935-.295-.942-3.509.116l-5.354 1.718-3.316 1.08c-.345.132-2.442.823-4.659 1.535l-7.796 2.517-6.272 2.035-12.433 4.051c-3.129 1.032-3.13 1.028-.66-2.466l2.465-3.507 2.505-3.584c2.065-2.95 2.468-3.589 2.367-3.753-.052-.085-.016-.132.08-.105.194.055.997-1.03 4.868-6.581l4.546-6.503c1.059-1.512 1.864-2.83 1.796-2.94-.071-.115-.043-.151.064-.085.21.13 6.343-8.522 6.452-9.102.126-.675-10.648-11.03-11.477-11.03-.045 0-.915 1.149-1.932 2.554M81.813 92.772a16.2 16.2 0 0 1-.274 1.314 80.65 80.65 0 0 0-1.247 6.299 30 30 0 0 1-.348 1.971c-.162.71-.427 3.005-.385 3.332.02.157 1.685.734 7.359 2.552l4.659 1.529c.345.131 2.2.736 4.122 1.346l7.168 2.316 6.9 2.238 3.853 1.269c.345.13 2.039.685 3.764 1.233l4.831 1.538c.932.298 1.791.542 1.907.542.357 0 .424.488.104.765-.284.246-1.429.695-2.631 1.033-.296.083-1.344.444-2.33.803s-2.034.72-2.33.804-1.586.528-2.867.987l-2.867.987c-.296.083-1.707.564-3.136 1.069l-3.854 1.342-12.544 4.326-2.868.965c-.295.087-1.586.529-2.867.983l-4.212 1.456c-2.614.877-2.45.424-1.708 4.731l.34 2.061c.089.623.521 2.815.936 4.749l.422 2.107c.186 1.063.163 1.059 2.114.432l2.735-.853 2.24-.689 2.33-.718 4.383-1.358c.933-.294 1.801-.534 1.929-.534s.374-.072.545-.16c.284-.146 2.573-.857 5.061-1.572.542-.156 1.25-.394 1.574-.53s.689-.247.811-.247.826-.191 1.562-.424l3.221-1.004 3.584-1.103 2.688-.816 1.703-.523a207.36 207.36 0 0 1 4.659-1.414l1.882-.563 2.502-.787c.932-.294 1.79-.534 1.906-.534s.442-.121.724-.268.651-.268.819-.269.49-.075.716-.165 1.218-.409 2.204-.709l4.212-1.282 4.211-1.282 2.509-.776c.394-.129 1.201-.372 1.792-.54l1.792-.539 2.599-.804 2.33-.719c.246-.083 1.294-.404 2.329-.714l2.599-.798c.394-.129 1.201-.372 1.792-.54a55.68 55.68 0 0 0 1.792-.544c.394-.131 1.443-.454 2.33-.719l3.226-.98 3.494-1.076 2.33-.724c.246-.08 1.053-.318 1.792-.528s1.583-.485 1.875-.611l.531-.231-1.068-.313-1.786-.548c-.394-.128-1.402-.439-2.24-.69l-4.211-1.287-4.481-1.374-2.509-.778c-.394-.129-1.442-.451-2.329-.714l-3.316-.998-2.688-.814-1.703-.524-2.598-.801-2.33-.724c-.246-.084-1.698-.524-3.226-.978l-3.494-1.068c-.395-.133-1.201-.379-1.792-.547a92.25 92.25 0 0 1-2.33-.705l-2.33-.715-1.792-.542-1.703-.521-2.598-.804-3.136-.966-6.183-1.874-3.405-1.047-2.419-.736-4.033-1.232-1.792-.551a158.71 158.71 0 0 0-2.598-.793l-2.33-.713c-.247-.084-1.295-.407-2.33-.719l-3.495-1.065-2.688-.807a84.72 84.72 0 0 1-2.329-.719c-.69-.225-1.739-.549-2.33-.72a101.24 101.24 0 0 1-3.226-.991c-.394-.127-.959-.289-1.254-.361s-.674-.186-.841-.255c-.245-.101-.323.006-.411.562m234.047-.22l-6.72 2.074-2.33.712c-.433.143-1.951.605-5.914 1.8l-2.599.801c-.394.129-1.442.452-2.329.72l-2.33.71-1.792.545-1.792.547-2.599.798-3.221 1c-.736.236-1.439.429-1.562.429s-.487.111-.811.247-1.072.388-1.664.559l-1.523.456a92.4 92.4 0 0 1-1.792.534l-2.599.788-2.33.719-1.792.55a436.85 436.85 0 0 1-5.107 1.562l-1.344.415a79.9 79.9 0 0 1-1.792.541 130.7 130.7 0 0 0-2.689.821l-2.598.803-1.434.434a229.85 229.85 0 0 1-2.33.707l-2.777.843-3.405 1.05-2.33.723c-.69.219-1.739.535-2.33.702l-1.792.532-1.703.523-2.688.832-2.598.807-2.42.725-2.24.687-1.792.551-1.792.549-1.785.543-1.069.313.531.231c.292.126 1.136.403 1.875.615l3.315.991 2.599.792 2.33.716a116.89 116.89 0 0 0 2.329.717l6.183 1.882 1.613.498 5.645 1.724 7.169 2.179 2.33.712a124.56 124.56 0 0 0 2.329.716l2.599.8c.675.221 3.728 1.157 5.107 1.566l1.344.413 1.613.492 2.689.813 3.673 1.114 2.33.716a143.89 143.89 0 0 0 2.33.726l6.72 2.05 5.825 1.787 2.688.818 2.598.794 1.344.415 5.108 1.553 1.703.525 4.749 1.438a90.44 90.44 0 0 0 1.792.547c.591.174 1.381.442 1.755.596.874.36 1.117.144 1.365-1.215l.439-2.24c.469-2.269.848-4.284 1.02-5.422.093-.616.243-1.463.334-1.882s.192-1.24.225-1.825l.059-1.065-1.882-.613-2.24-.758c-.197-.08-1.568-.524-3.047-.986l-4.121-1.335c-.789-.273-2.523-.841-3.854-1.263l-6.362-2.064-7.974-2.591-10.753-3.495c-1.188-.442-4.14-1.343-4.4-1.343-.388 0-.313-.675.099-.896.198-.106 1.307-.511 2.464-.901l4.435-1.52 5.198-1.788 6.003-2.066 5.825-1.988 2.957-1.005c.677-.263 4.806-1.703 5.286-1.845.296-.087 1.223-.402 2.061-.699l9.812-3.371c.497-.113.544-1.137.15-3.258l-.542-3.064c-.159-.937-.362-2.026-.452-2.42-.324-1.436-.699-3.241-.802-3.866-.196-1.187-.373-1.266-1.804-.804m-134.041 40.947c-.057.091-.364.218-.683.282s-.903.227-1.297.361a106.4 106.4 0 0 1-2.599.806l-2.33.708a87.74 87.74 0 0 1-1.523.458c-.591.172-1.357.414-1.702.537s-1.071.348-1.613.5c-1.19.333-4.28 1.267-6.004 1.814l-2.33.723-1.792.55-1.792.545-2.33.718-2.329.709c-1.121.322-3.525 1.056-5.825 1.777l-2.688.818-8.423 2.581-2.419.731-5.914 1.794-1.792.55-2.33.717-3.136.965-4.391 1.353a83.34 83.34 0 0 1-1.792.532l-1.792.539-2.33.722-2.33.718-1.792.547-2.33.719-2.598.788-1.792.542c-.247.085-1.295.408-2.33.718l-2.599.796-1.792.548-1.523.459-2.33.706c-2.372.712-3.405 1.076-3.405 1.2 0 .054.294.833.653 1.733 1.479 3.701 2.687 6.465 4.142 9.475 1.785 3.692 1.487 3.504 4.18 2.639l2.584-.809 2.689-.817 2.419-.738 1.344-.415c.394-.126 1.201-.367 1.792-.536a49.95 49.95 0 0 0 1.792-.546c.395-.132 1.564-.495 2.599-.807l5.466-1.672 1.792-.551 1.792-.551a132.68 132.68 0 0 1 2.33-.705l2.33-.703 1.792-.55 1.792-.546 1.792-.546 2.33-.717 3.136-.962c1.035-.311 2.067-.641 2.293-.736 1.475-.613 1.264.08-.948 3.108-2.245 3.073-2.467 3.425-2.28 3.612.071.071.034.102-.081.069s-1.774 2.077-3.685 4.689l-10.068 14.184c.076.122.051.16-.059.092-.156-.096-2.799 3.436-8.949 11.961-.926 1.284-1.111.925 2.215 4.285 4.223 4.265 9.692 9.262 10.137 9.263.329 0 2.983-3.864 2.893-4.211-.068-.259-.047-.292.073-.118s.528-.258 1.573-1.703l3.303-4.542 4.291-5.913 4.102-5.646 4.632-6.362 3.352-4.617c.986-1.348 1.685-2.466 1.613-2.582s-.046-.155.065-.086.52-.337.935-.913c3.985-5.525 6.674-9.087 6.831-9.046.105.027.142-.029.083-.124-.112-.181.58-1.185 5.009-7.268l19.781-27.73c-.196-.14-.185-.157.049-.082.275.087.633-.191.941-.733.151-.265-.707-.323-.87-.058m34.878.013c.058.175 1.376 2.01 6.557 9.126l3.593 4.943 8.454 11.648 26.434 36.38 14.401 19.624c.691 0 13.111-11.763 13.111-12.417 0-.338-7.938-10.69-8.114-10.581-.102.063-.131.028-.065-.079s-1.115-1.832-2.624-3.836l-9.621-12.782-7.384-9.763c-.931-1.145-.549-1.419 1.24-.889l2.196.635 1.433.418a148.49 148.49 0 0 0 3.405.982l2.868.819 2.509.719 5.286 1.515 1.882.543 1.523.439 4.212 1.2a39.11 39.11 0 0 1 1.434.425c.246.082.931.283 1.523.446l3.853 1.092 1.882.527c.591.161 1.276.361 1.523.444.421.141 1.057.323 3.538 1.009l2.734.797c1.679.504 2.046.586 2.441.545.161-.017 3.115-5.715 3.115-6.008 0-.045.247-.632.549-1.304l.699-1.581c.369-.881 1.331-3.291 1.574-3.942a20.08 20.08 0 0 1 .446-1.103c.248-.534.099-.695-.889-.957-.471-.125-1.42-.409-2.11-.632l-2.151-.67-6.272-1.915-2.688-.811-2.33-.709-2.33-.722-1.792-.553c-.394-.126-1.201-.367-1.792-.535a88.68 88.68 0 0 1-2.33-.707l-2.509-.779-2.683-.833c-.786-.25-1.529-.454-1.652-.454s-.487-.111-.811-.248-.871-.33-1.216-.431l-1.971-.576-2.599-.792-2.33-.723-1.792-.555c-.655-.21-3.583-1.101-5.107-1.553l-1.344-.404-1.703-.512-2.598-.809-2.689-.824-1.523-.458a131.15 131.15 0 0 0-2.33-.711l-2.598-.793a95.28 95.28 0 0 0-1.792-.553l-1.792-.543-1.344-.408-2.42-.746-2.598-.799-6.273-1.913-2.24-.688-5.018-1.534a131 131 0 0 0-2.33-.719l-6.749-2.084c-1.673-.557-2.005-.616-1.912-.338m-24.264 8.737c-.245.37-3.092 4.301-6.326 8.737l-7.099 9.767-2.468 3.405-3.579 4.928-4.768 6.541-2.873 3.943-1.022 1.45-17.258 23.729-4.235 5.824-5.674 7.822c-1.705 2.342-2.337 3.345-2.259 3.584s.062.269-.063.094c-.135-.188-.254-.135-.555.248-.537.683-.554.659 1.185 1.742 5.471 3.408 12.052 6.853 12.463 6.523.144-.115 1.548-1.984 3.12-4.152l5.009-6.9 5.593-7.706 9.439-12.967c.102-.113.379-.487.616-.832 2.169-3.158 4.041-5.564 4.29-5.517.416.08.483 5.494 1.039 83.065.072 10.074.142 12.984.317 13.129.151.125 2.804.171 8 .14l7.775-.047.045-73.611-.11-73.611c-.086 0-.357.302-.602.672m13.894 72.95l.035 73.711 7.885.004 7.886.003.089-47.998.383-47.998c.175 0 1.634 1.785 3.592 4.391l15.468 20.52 5.713 7.571 4.159 5.421c.045 0 1.028-.482 2.184-1.071 6.499-3.311 11.793-6.47 11.615-6.932-.086-.226-3.583-5.073-10.645-14.756l-5.205-7.169-7.56-10.394-6.793-9.343-7.803-10.742-7.269-10.012-4.167-5.746-3.071-4.211-6.189-8.513c-.337-.441-.341.697-.307 73.264m-29.314-12.471c-.038.422-.069.121-.07-.667s.03-1.133.069-.766a9.01 9.01 0 0 1 .001 1.433m77.587 5.814c-.14.14-.651-.163-.551-.326.063-.101.209-.083.362.045.141.117.226.244.189.281m19.357 2.84c.027.258.012.273-.054.054a.65.65 0 0 0-.393-.393c-.219-.066-.204-.08.054-.054.209.021.372.184.393.393" fill="#04a4d4"/><path d="M188.351.209l-4.032.519-7.2 1.269c-.195.162-.237 4.414-.237 23.742l-.175 23.544c-.097 0-.317-.222-.489-.493s-.36-.533-.416-.582-.296-.372-.533-.717-.48-.668-.541-.717-.384-.493-.718-.985a14.99 14.99 0 0 0-1.018-1.343c-.226-.245-.411-.501-.411-.569s-.104-.23-.231-.361-.469-.559-.76-.953-.575-.757-.63-.807-.293-.372-.53-.717-.475-.667-.529-.716-.581-.735-1.171-1.524l-1.173-1.523c-.056-.049-.298-.372-.538-.717a24.72 24.72 0 0 0-.65-.896 124.91 124.91 0 0 1-1.156-1.523c-.517-.69-.991-1.295-1.052-1.344s-.301-.372-.535-.717-.996-1.375-1.694-2.288l-1.627-2.151-7.454-9.898c-.064-.049-.348-.425-.632-.834-1.851-2.669-4.1-5.438-4.416-5.438s-1.084.355-3.717 1.712l-1.613.83c-.443.228-.847.455-.896.504s-.251.177-.448.284c-2.664 1.444-3.487 1.916-5.018 2.876-2.992 1.876-2.906 1.766-2.103 2.692.27.311 1.014 1.314 1.655 2.23l2.3 3.199 1.389 1.891c.218.309 1.047 1.44 1.97 2.688l4.037 5.556 3.163 4.358 2.822 3.891 2.599 3.59 2.378 3.278 1.075 1.461c.121.148 1.027 1.398 2.012 2.778l2.007 2.777c.118.147 1.442 1.962 2.941 4.032l3.28 4.509.853 1.165 1.865 2.57 3.19 4.39 1.73 2.33c.06.049.381.493.716.986.63.929 3.966 5.527 4.359 6.007.122.15.494.674.825 1.165s1.049 1.497 1.596 2.236l1.646 2.24 1.633 2.24 3.826 5.282 1.563 2.108c.171.199.562.755.87 1.235 1.146 1.785 1.061 5.764 1.061-49.843L193.235 0c-.074 0-.117 22.762-.096 50.582l.039 50.583-.368-.448c-.348-.423-5.809-7.915-7.067-9.695l-6.9-9.498-9.036-12.438-5.139-7.079-9.38-12.903-7.814-10.753-7.228-9.946-5.33-7.288c-.575-.756-1.045-1.454-1.045-1.551 0-.552 13.206-7.84 13.957-7.702.16.03 1.686 1.908 3.393 4.175l7.281 9.678 18.13 24.085c.594.678.608.123.608-23.998V2.189l.403-.096c1.599-.382 7.382-1.164 11.525-1.56 1.189-.113 2.439-.271 2.778-.351.87-.205-2.055-.183-3.595.027m17.607 50.448l.248 50.725c.112.037.732-.682 1.379-1.598l1.327-1.845c.083-.098.551-.744 1.04-1.434l1.103-1.523c.118-.148 1.264-1.72 2.548-3.495l2.564-3.523c.127-.164.674-.917 1.217-1.673l2.785-3.823 2.419-3.321 4.592-6.387c.432-.543 3.657-4.953 4.467-6.109.666-.951 6.089-8.421 6.298-8.676.081-.099.345-.462.588-.807s.54-.748.662-.896.994-1.357 1.94-2.688l2.2-3.024c.488-.612.956-1.258 2.298-3.176.408-.582 1.214-1.678 1.792-2.437a92.64 92.64 0 0 0 1.904-2.598l1.792-2.503 1.875-2.598 1.077-1.495c.079-.099.465-.623.858-1.165l.928-1.255c.286-.358 2.276-3.11 3.677-5.084l1.31-1.792c.101-.111.58-.767 1.065-1.457s.927-1.295.983-1.344c.27-.238 1.981-2.718 1.981-2.871 0-.097.063-.176.14-.176.223 0 .788-1.057.668-1.25-.132-.214-1.859-1.342-3.709-2.424l-1.794-1.052c-3.006-1.764-8.195-4.413-8.643-4.413-.274 0-.538.304-2.018 2.329-.469.641-.903 1.205-.965 1.255s-.219.29-.348.535-.61.931-1.066 1.524-1.228 1.641-1.713 2.331-.927 1.295-.983 1.345-.497.654-.981 1.344-.924 1.294-.979 1.344-.459.614-.897 1.254-.846 1.205-.905 1.255-.567.734-1.128 1.523l-2.457 3.405-2.458 3.405c-.561.789-1.07 1.474-1.131 1.523s-.448.574-.859 1.165-1.519 2.124-2.462 3.405l-2.143 2.957a221.73 221.73 0 0 1-3.454 4.754c-.086.101-.3.403-.476.672-.796 1.215-.999-.842-.993-10.069l-.184-12.92-.75-23.858c-.429-.27-2.966-.692-7.402-1.233l-4.26-.543c-1.545-.219-4.122-.21-3.181.011.343.081 1.593.239 2.778.351a134.51 134.51 0 0 1 11.491 1.557l.556.098.128 8.717.29 13.377a352.02 352.02 0 0 1 .168 9.962c.014 15.5.168 16.864 1.658 14.635.346-.518 1.81-2.554 3.254-4.525l3.404-4.66 6.123-8.423 8.208-11.29c5.423-7.469 5.943-8.151 6.218-8.152.657-.004 7.805 3.847 12.045 6.491 2.005 1.25 1.964 1.16 1.061 2.361l-8.902 12.203-8.724 12.007-4.17 5.735-1.387 1.913-3.447 4.749-12.95 17.801-11.255 15.501-7.455 10.207c-.1.104-.147-19.504-.119-50.314L206.138 0c-.18 0-.216 10.189-.18 50.657m-83.511-23.249l-4.066 3.505c-2.153 1.866-7.449 7.204-7.449 7.507 0 .145.105.371.232.501s.506.64.841 1.133a41.31 41.31 0 0 0 1.086 1.523 193.12 193.12 0 0 1 1.847 2.509l1.506 2.061a97.48 97.48 0 0 1 1.021 1.434c.485.69.931 1.294.99 1.344s.79 1.043 1.624 2.208l3.574 4.96 1.299 1.792 5.65 7.676c.123.13.317.413.43.627s.65.994 1.193 1.733l1.911 2.599 1.987 2.742c.585.818 1.329 1.818 1.654 2.222.335.416.524.803.436.891-.154.153-.512.062-3.625-.926l-2.33-.711c-.443-.125-1.008-.293-1.254-.374s-1.053-.325-1.793-.544l-2.598-.795-2.599-.803-2.957-.921c-.887-.282-1.714-.512-1.839-.512s-.366-.074-.538-.165-.916-.343-1.655-.562l-2.598-.794-2.33-.704-1.792-.542a42.51 42.51 0 0 0-1.524-.458c-1.359-.378-3.119-.941-3.447-1.102-.171-.085-.478-.154-.681-.154s-.608-.123-.898-.273-.529-.232-.529-.182-.404-.068-.897-.262a24.64 24.64 0 0 0-2.196-.7 87.1 87.1 0 0 1-3.09-.917c-1.761-.56-2.642-.819-3.458-1.016-.558-.135-.646-.001-2.611 3.977-1.984 4.015-2.358 4.827-3.543 7.694l-1.048 2.522c-.822 1.907-.883 2.957-.172 2.957.359 0 2.432.596 3.126.899.197.086 1.205.409 2.24.717l2.599.792a41.92 41.92 0 0 0 1.523.456c.443.123 1.008.289 1.254.37s1.053.324 1.793.542l3.315 1.013 2.598.804c.345.102.768.256.939.343s.413.157.538.157.952.231 1.839.513l2.957.908 1.792.543a156.59 156.59 0 0 0 2.061.636l2.599.802 1.612.494c.907.259 3.806 1.145 6.9 2.108l3.226.998 6.003 1.812 2.42.71c.394.105.999.3 1.344.432s1.474.493 2.509.802l3.674 1.108 2.329.698a66.4 66.4 0 0 1 1.613.494l2.689.828 6.81 2.09c.887.281 1.714.511 1.839.511s.366.073.538.162c.256.133 2.56.867 5.149 1.641l2.33.702 2.33.696c1.744.506 3.266.99 3.537 1.125.171.085.471.154.666.154s.619.114.943.253c.813.348 4.138 1.36 4.47 1.36.149 0 .328.058.399.129.152.152 1.679.569 2.127.58.535.014.369-.301-1.524-2.883l-2.195-3.012-.978-1.378-2.42-3.323-2.785-3.832c-.542-.76-1.07-1.472-1.173-1.582s-.463-.604-.799-1.096a198.25 198.25 0 0 0-3.357-4.66c-.081-.099-.342-.461-.581-.806s-.485-.668-.546-.717-.438-.574-.837-1.165-1.36-1.929-2.137-2.973l-2.936-4.01-2.419-3.338-1.613-2.23-1.019-1.395a811.04 811.04 0 0 1-5.033-6.932l-3.848-5.287c-.082-.099-.546-.744-1.032-1.434s-.93-1.295-.988-1.344-.298-.372-.535-.717-.475-.667-.529-.717-.421-.571-.815-1.16-.838-1.196-.986-1.349-.707-.921-1.244-1.707-1.025-1.469-1.086-1.518-.506-.654-.99-1.344-.927-1.295-.987-1.344-.379-.493-.711-.986a46.24 46.24 0 0 0-1.076-1.523l-1.127-1.524-.799-1.075c-.079-.099-.342-.461-.584-.806a23.29 23.29 0 0 0-.658-.896c-.12-.148-.679-.914-1.243-1.703l-3.746-5.197-2.557-3.54c-1.465-2.047-1.735-2.217-2.501-1.579m153.053-.033c-.063.172-.167.353-.23.403s-.388.493-.722.985l-.754 1.076c-.197.241-1.125 1.505-2.303 3.138l-1.374 1.881c-.222.295-.742 1.02-1.155 1.612s-.837 1.166-.941 1.278-.697.918-1.317 1.792l-3.677 5.084c-.118.148-.615.833-1.104 1.523l-1.036 1.434c-.081.098-.908 1.227-1.838 2.509l-1.92 2.629c-.126.166-.552.753-.946 1.305l-4.215 5.833-1.514 2.061-1.621 2.15c-.242.296-.441.604-.443.685s-.104.254-.227.385c-.234.248-.766.974-4.6 6.278l-2.48 3.405c-.081.098-.423.58-.76 1.071s-.715 1.015-.841 1.165-.952 1.281-1.834 2.513l-1.753 2.419c-.081.099-.466.623-.856 1.165s-.756 1.026-.816 1.075-.378.493-.71.986-.651.936-.708.986-.405.533-.773 1.075a23.34 23.34 0 0 1-1.073 1.466c-.222.265-.784 1.031-1.248 1.703-.902 1.305-3.568 4.956-4.002 5.48-.143.174-.261.355-.261.404s-.423.647-.941 1.33l-1.658 2.259-2.126 2.924-1.96 2.714c-.302.443-.6.846-.663.896s-.385.492-.716.985-.658.937-.723.986c-.148.111-.532.828-.532.993 0 .139.873.02 1.792-.244 2.038-.585 5.44-1.667 5.73-1.822a1.99 1.99 0 0 1 .789-.182c.247 0 .499-.08.56-.179s.247-.179.414-.179 1.029-.231 1.916-.513l2.957-.908 1.792-.545c.411-.137 3.892-1.211 5.376-1.658.345-.104.789-.248.986-.32s.923-.296 1.613-.498l5.466-1.64 2.061-.639 2.598-.805c.542-.171 1.349-.412 1.792-.535a38.93 38.93 0 0 0 1.255-.37 94.46 94.46 0 0 1 1.792-.543c2.939-.865 4.777-1.45 5.338-1.698.323-.143.782-.26 1.019-.26s.482-.081.543-.179.247-.179.413-.179 1.029-.231 1.916-.513l2.957-.908 1.792-.538c.247-.078.731-.223 1.076-.322 1.46-.419 4.952-1.543 5.239-1.686a1.66 1.66 0 0 1 .615-.155c.168 0 .754-.154 1.302-.343s1.603-.521 2.342-.738l5.555-1.698c.345-.129 1.233-.41 1.972-.625l3.046-.911 2.33-.703 6.362-1.973c.197-.078.963-.316 1.703-.53l1.792-.535c.246-.081.77-.235 1.165-.344.956-.265 4.275-1.287 6.81-2.099a61.98 61.98 0 0 1 1.792-.529l1.303-.367c.345-.101.469-.589.262-1.028-.102-.215-.287-.673-.413-1.018-.235-.65-2.093-5.068-2.693-6.407l-.721-1.613c-.318-.71-2.264-4.634-3.146-6.343-.488-.945-.648-.974-2.351-.423l-5.592 1.816-5.825 1.881-2.15.704c-.198.074-1.206.397-2.241.719l-4.154 1.362c-1.25.428-2.36.777-2.467.777s-.333.074-.505.164-1.158.426-2.193.746l-3.136 1.017c-.69.239-1.456.475-1.702.523a5.9 5.9 0 0 0-.986.323c-.296.13-1.586.568-2.867.975l-5.556 1.794c-3.893 1.274-3.768 1.244-3.745.91.016-.23 1.546-2.508 2.307-3.436.135-.165.344-.487.465-.717s.272-.457.335-.507c.127-.1 2.115-2.929 5.097-7.258 1.087-1.577 2.121-3.024 2.298-3.215s.322-.412.322-.49.117-.286.26-.459.743-1.002 1.332-1.839l1.239-1.714c.092-.105.271-.387.397-.627s.286-.478.353-.527.536-.694 1.043-1.434l2.673-3.853c.082-.098.704-.985 1.381-1.971s1.289-1.832 1.358-1.882.224-.277.345-.507.333-.552.47-.716c.227-.273 1.25-1.734 4.125-5.892 1.305-1.887 1.346-1.769-1.662-4.716-6.551-6.418-9.494-8.731-9.857-7.747m-151.71.537c.287.37 1.157 1.559 1.934 2.644l2.405 3.339 2.597 3.584 6.106 8.399 11.916 16.398 12.902 17.742 5.468 7.527 7.24 9.964 3.689 5.085 2.912 3.986c1.592 2.148 1.834 2.56 1.508 2.56-.172 0-2.454-.676-2.987-.885-.197-.077-.842-.281-1.433-.453l-1.793-.536-3.584-1.09-2.329-.723-1.882-.583c-.345-.098-2.119-.637-3.943-1.197l-5.645-1.7c-.394-.113-1.039-.315-1.434-.45a87.1 87.1 0 0 0-2.329-.724l-2.33-.706-1.613-.499-2.509-.759-2.33-.717c-.394-.127-1.563-.483-2.598-.793l-3.226-.987-2.688-.813-1.792-.544a115.4 115.4 0 0 0-2.33-.718l-2.599-.795-1.792-.555-2.33-.712-2.329-.704-1.793-.542-1.792-.547-1.792-.55c-.783-.252-2.548-.792-5.466-1.672l-2.598-.808c-.395-.132-1.201-.377-1.792-.546l-1.793-.54c-.841-.274-3.662-1.142-5.824-1.793l-2.33-.71-2.688-.821-2.598-.803c-.395-.128-1.201-.371-1.792-.539-1.654-.471-3.864-1.153-4.666-1.44-.398-.142-.846-.258-.996-.258-.707 0-.991-.469-.67-1.107.165-.327.474-1.079.686-1.67.803-2.237 2.825-6.76 4.568-10.216 2.183-4.328 1.325-4.113 7.888-1.973.69.225 1.738.546 2.329.715l1.792.534 1.703.524 2.061.631 2.419.736c3.045.907 3.689 1.111 3.985 1.268.171.09.438.164.593.164s.983.231 1.84.512a86.96 86.96 0 0 0 2.632.821l1.524.461c.246.084 1.294.407 2.329.717l2.599.796 1.792.55 1.792.544 2.24.686 6.142 1.883c2.2.685 2.259.44.473-1.952l-2.097-2.867-5.127-7.079-7.883-10.843-6.915-9.498c-4.086-5.603-4.127-5.66-4.127-5.871 0-.225 5.726-5.872 7.886-7.775 4.433-3.909 3.915-3.605 4.614-2.707m154.226.872c4.672 3.959 9.618 8.79 9.618 9.393 0 .161-2.313 3.593-5.14 7.626L274.729 56.9l-4.085 5.824-2.391 3.405-1.943 2.778-5.447 7.818c-.588.941-.187.972 2.242.171l12.433-4.051 6.272-2.035 7.796-2.517 4.659-1.535c.345-.132 1.837-.618 3.316-1.08l5.354-1.718c3.214-1.058 2.997-1.051 3.509-.116.831 1.515 3.386 6.703 3.863 7.841l.812 1.881c.295.65 1.006 2.417 1.731 4.301a20.74 20.74 0 0 0 .473 1.138c.213.454-.175.923-.762.923-.15 0-.598.116-.996.257-.825.293-3.611 1.161-5.203 1.621l-2.419.732-5.914 1.817-2.24.694-2.33.709c-1.121.323-3.524 1.056-5.825 1.777l-2.688.811-1.792.544c-.246.084-1.295.407-2.33.718l-2.598.798a65.98 65.98 0 0 1-1.792.54 49.95 49.95 0 0 0-1.792.546c-.395.133-1.443.456-2.33.72l-2.33.709-1.792.55-2.33.719-2.598.792-2.599.792-2.33.719-1.792.542-3.584 1.087c-.591.173-1.237.373-1.434.444s-.842.27-1.433.442l-1.793.544-2.598.801-3.226.983-3.226.984-3.674 1.117-2.508.778c-.395.128-1.201.37-1.793.539a97.71 97.71 0 0 0-2.329.704l-2.24.698-2.778.842-3.136.966c-2.957.93-3.97 1.208-4.061 1.117-.053-.052.922-1.492 2.165-3.199l4.329-5.972 3.315-4.569 2.738-3.764 4.224-5.824 3.116-4.301 3.853-5.287 3.726-5.108 11.192-15.412 16.028-22.043 2.765-3.808c1.017-1.405 1.887-2.554 1.932-2.554s.903.695 1.905 1.544M81.92 91.923c-.24.148-.949 2.804-1.38 5.169l-.632 3.446c-.191 1.035-.42 2.486-.51 3.225s-.207 1.465-.262 1.613c-.169.454.117.673 1.474 1.13.718.241 1.355.489 1.417.551s.324.111.584.111.548.068.642.149 1.138.456 2.32.832l4.212 1.356 13.351 4.318 2.151.7a84.57 84.57 0 0 0 2.329.78l7.617 2.46c.641.203 1.326.434 1.523.514s1.568.522 3.047.984 2.828.913 2.999 1.004.469.165.662.165c.491 0 .625.306.227.519-.292.156-1.695.647-5.232 1.832-.542.182-1.126.412-1.297.513s-.434.183-.585.183-.414.071-.585.159-.876.336-1.565.553-1.416.463-1.613.545-.843.313-1.434.511l-3.674 1.282-2.957 1.012c-.197.049-.52.153-.717.231-.632.249-3.213 1.118-3.584 1.206a5.72 5.72 0 0 0-.717.236 20.87 20.87 0 0 1-.985.363l-3.674 1.285-3.585 1.221c-.295.081-1.545.506-2.777.944l-3.674 1.283-1.792.638c-.197.082-.52.189-.717.237-.792.193-3.061 1.073-3.27 1.268-.167.156-.18.452-.05 1.189l.547 3.31c.548 3.401 1.329 7.206 1.903 9.274.097.349.846.423 1.533.151.227-.09 1.017-.336 1.756-.548s1.627-.493 1.972-.625.99-.337 1.433-.458 1.008-.285 1.255-.365 1.053-.323 1.792-.539l2.867-.88 2.33-.716c.444-.126 1.371-.414 2.061-.64s1.859-.588 2.598-.804l1.793-.541c.246-.082 1.052-.324 1.792-.538l1.792-.534c.246-.08 1.295-.401 2.33-.714l4.372-1.36c1.369-.435 2.6-.79 2.735-.79a1.49 1.49 0 0 0 .556-.162c.288-.149 2.834-.944 4.075-1.273 1.283-.339 4.148-1.264 4.433-1.43a1.56 1.56 0 0 1 .664-.182c.193 0 .537-.076.764-.169s1.016-.342 1.755-.553 1.485-.457 1.656-.548a1.53 1.53 0 0 1 .586-.164c.151 0 1.019-.239 1.929-.532l6.851-2.169c1.254-.34 1.861-.516 3.047-.883l1.792-.536c.295-.082 2.513-.769 4.928-1.528l5.018-1.522c.345-.079 1.232-.341 1.971-.583l2.688-.848 2.689-.831 2.06-.63 2.42-.732 2.24-.676a240.13 240.13 0 0 0 5.556-1.704c.394-.135 1.422-.456 2.284-.714 1.468-.44 2.016-.872 1.345-1.06l-1.031-.284c-.443-.122-1.008-.287-1.254-.368s-1.053-.324-1.793-.542l-2.956-.895-3.495-1.068-2.599-.8c-.394-.128-1.079-.333-1.523-.455a68.03 68.03 0 0 1-2.371-.735c-.861-.283-1.679-.514-1.817-.514s-.482-.12-.765-.268-.65-.268-.818-.269-.491-.077-.717-.17c-.408-.168-2.578-.846-5.161-1.613l-5.018-1.539-3.315-1.015c-.394-.11-1.402-.429-2.24-.709s-1.666-.508-1.84-.509a1.59 1.59 0 0 1-.627-.17c-.276-.151-1.123-.418-3.537-1.117a98.65 98.65 0 0 1-1.971-.607l-2.599-.795-1.792-.544c-.246-.082-1.053-.327-1.792-.544l-2.957-.908c-.887-.283-1.738-.513-1.891-.513s-.354-.076-.448-.169-.492-.246-.887-.34-1.523-.431-2.509-.748-1.993-.614-2.24-.659-.609-.151-.806-.235c-.333-.142-2.027-.663-3.495-1.075s-3.162-.934-3.495-1.075c-.197-.084-.842-.289-1.433-.457s-1.761-.523-2.599-.791l-2.24-.688c-.839-.236-3.946-1.176-5.107-1.546l-7.527-2.291c-.345-.102-.768-.256-.939-.343a1.63 1.63 0 0 0-.609-.157c-.163 0-.749-.152-1.301-.338-3.177-1.068-3.747-1.228-3.941-1.108m234.03.281a96.48 96.48 0 0 1-4.301 1.339l-1.255.372a83.32 83.32 0 0 1-1.792.538l-2.061.63c-.394.13-1.563.494-2.598.808l-3.495 1.085c-.887.283-1.749.515-1.916.515s-.353.081-.414.179-.247.179-.414.179-1.069.242-2.005.538l-2.24.701-2.599.809-2.778.848c-1.594.451-3.063.918-3.357 1.068-.171.087-.47.158-.664.158s-.538.078-.764.172-1.379.463-2.562.818-2.291.723-2.462.815-.413.167-.538.167-.952.23-1.839.513l-2.957.911-4.211 1.282-3.943 1.242c-.628.227-3.567 1.091-4.032 1.185a5.77 5.77 0 0 0-.807.233c-.387.154-2.196.715-3.494 1.084a75.4 75.4 0 0 0-2.061.634l-2.599.808-3.046.918-2.241.678c-3.453 1.039-4.889 1.495-5.15 1.635-.171.092-.438.167-.593.167s-.982.23-1.839.512l-2.901.908-1.793.543c-.246.08-.811.249-1.254.375s-1.774.547-2.957.937-2.433.771-2.778.848-1.434.399-2.419.717-2.074.632-2.418.695c-1.061.196-.919.672.301 1.008.573.157 1.364.397 1.758.531 1.933.661 5.985 1.887 6.236 1.887.157 0 .334.08.395.179s.304.179.54.179.614.076.841.169 1.177.405 2.114.693l3.853 1.19 7.975 2.423 2.33.718 1.881.587 3.943 1.206c.197.078.681.229 1.075.336.966.262 3.954 1.167 6.9 2.09l4.211 1.295 5.967 1.847c.227.093.59.173.807.176s.551.124.743.269.473.263.627.263 1.045.243 1.982.54l2.419.742c.394.111 1.16.344 1.703.517s1.348.414 1.792.536 1.492.443 2.329.713l2.599.807 4.928 1.515a86.39 86.39 0 0 0 1.792.541l1.882.557 4.839 1.503a44.45 44.45 0 0 0 1.523.461c.444.123 1.492.443 2.33.71l2.598.791 1.793.539c.394.129 1.079.337 1.523.463s1.371.414 2.061.639c4.67 1.525 4.596 1.528 4.94-.194l.494-2.33c.516-2.378 1.054-5.206 1.263-6.631l.382-2.491c.254-1.586.515-1.422-5.018-3.143-1.035-.322-2.043-.656-2.24-.742s-.722-.272-1.165-.411l-10.663-3.429-6.362-2.061-5.377-1.758c-.246-.099-1.294-.439-2.329-.756l-2.241-.721c-.197-.079-.923-.316-1.612-.527s-1.416-.453-1.613-.538-.56-.19-.807-.236-1.456-.426-2.688-.843l-2.494-.832c-.509-.145.14-.434 3.757-1.674l4.024-1.411c.513-.222 3.127-1.109 3.763-1.278.296-.078 1.909-.627 3.584-1.219l3.674-1.287c.345-.116.789-.274.986-.351a68.27 68.27 0 0 1 3.584-1.207 5.58 5.58 0 0 0 .717-.239 292.76 292.76 0 0 1 8.244-2.865c.948-.256 7.874-2.676 8.196-2.864.171-.1.407-.182.525-.182.421 0 3.29-1.118 3.48-1.357.133-.165.144-.576.036-1.28l-.348-2.291c-.242-1.593-.764-4.353-1.239-6.541l-.513-2.419c-.309-1.547-.419-1.607-1.983-1.076m-232.885.261c.295.072.86.234 1.254.361l3.226.991c.591.171 1.64.495 2.33.72a84.72 84.72 0 0 0 2.329.719l2.688.807 3.495 1.065 2.33.719c.246.084 1.295.404 2.33.713l2.598.793a89.72 89.72 0 0 0 1.792.551l4.033 1.232 2.419.736 3.405 1.047c.831.265 2.349.725 6.183 1.874l3.136.966 2.598.804 1.703.521 1.792.542 2.33.715a92.25 92.25 0 0 0 2.33.705c.591.168 1.397.414 1.792.547s1.967.614 3.494 1.068l3.226.978c.247.085 1.295.41 2.33.724l2.598.801 1.703.524 2.688.814 3.316.998 2.329.714c.395.129 1.524.479 2.509.778l4.481 1.374 4.211 1.287 2.24.69a77.89 77.89 0 0 0 1.786.548l1.068.313-.531.231c-.292.126-1.136.402-1.875.611l-1.792.528c-.246.081-1.295.406-2.33.724l-3.494 1.076-3.226.98-2.33.719a55.68 55.68 0 0 1-1.792.544c-.591.168-1.398.411-1.792.54s-1.564.487-2.599.798l-2.329.714c-.247.082-1.295.406-2.33.719l-2.599.804a65.27 65.27 0 0 1-1.792.539c-.591.168-1.398.411-1.792.54a192.77 192.77 0 0 1-2.509.776l-4.211 1.282-4.212 1.282c-.986.3-1.977.619-2.204.709s-.549.164-.716.165-.537.122-.819.269-.608.268-.724.268-.974.24-1.906.534l-2.502.787c-.443.14-1.29.393-1.882.563a207.36 207.36 0 0 0-4.659 1.414l-1.703.523-2.688.816-3.584 1.103-3.221 1.004c-.736.233-1.439.424-1.562.424s-.488.111-.811.247-1.032.374-1.574.53c-2.488.715-4.777 1.426-5.061 1.572-.171.088-.416.16-.545.16s-.996.24-1.929.534l-4.383 1.358-2.33.718-2.24.689c-.542.16-1.773.544-2.735.853-1.951.627-1.928.631-2.114-.432-.074-.42-.264-1.368-.422-2.107-.415-1.934-.847-4.126-.936-4.749-.043-.296-.195-1.223-.34-2.061-.742-4.307-.906-3.854 1.708-4.731l4.212-1.456 2.867-.983c.296-.087 1.586-.521 2.868-.965l12.544-4.326 3.854-1.342 3.136-1.069c.295-.084 1.586-.528 2.867-.987l2.867-.987c.296-.084 1.345-.446 2.33-.804s2.034-.72 2.33-.803c1.202-.338 2.347-.787 2.631-1.033.32-.277.253-.765-.104-.765-.116 0-.975-.244-1.907-.542l-4.831-1.538-3.764-1.233c-.345-.131-2.079-.702-3.853-1.269l-6.9-2.238-7.168-2.316-4.122-1.346c-.345-.13-2.442-.818-4.659-1.529-5.674-1.818-7.339-2.395-7.359-2.552-.042-.327.223-2.622.385-3.332a30 30 0 0 0 .348-1.971 80.65 80.65 0 0 1 1.247-6.299 16.2 16.2 0 0 0 .274-1.314c.088-.556.166-.663.411-.562.167.069.545.184.841.255m234.599.891c.103.625.478 2.43.802 3.866.09.394.293 1.483.452 2.42l.542 3.064c.394 2.121.347 3.145-.15 3.258-.368.083-6.102 2.053-9.812 3.371l-2.061.699c-.48.142-4.609 1.582-5.286 1.845a233.75 233.75 0 0 1-2.957 1.005l-5.825 1.988-6.003 2.066-5.198 1.788-4.435 1.52c-1.157.39-2.266.795-2.464.901-.412.221-.487.896-.099.896.26 0 3.212.901 4.4 1.343.613.227 2.543.855 10.753 3.495l7.974 2.591 6.362 2.064 3.854 1.263c.788.272 2.643.873 4.121 1.335l3.047.986a71.01 71.01 0 0 0 2.24.758l1.882.613-.059 1.065c-.033.585-.134 1.407-.225 1.825s-.241 1.266-.334 1.882c-.172 1.138-.551 3.153-1.02 5.422l-.439 2.24c-.248 1.359-.491 1.575-1.365 1.215-.374-.154-1.164-.422-1.755-.596l-1.792-.547c-.645-.207-1.601-.496-4.749-1.438l-1.703-.525c-.655-.211-3.583-1.101-5.108-1.553l-1.344-.415-2.598-.794-2.688-.818-5.825-1.787-6.72-2.05-2.33-.726a125.5 125.5 0 0 0-2.33-.716l-3.673-1.114-2.689-.813-1.613-.492-1.344-.413-5.107-1.566c-.394-.129-1.564-.489-2.599-.8l-2.329-.716a115.35 115.35 0 0 0-2.33-.712l-7.169-2.179-5.645-1.724-1.613-.498-6.183-1.882-2.329-.717c-.247-.083-1.295-.406-2.33-.716l-2.599-.792c-1.071-.339-1.828-.565-3.315-.991-.739-.212-1.583-.489-1.875-.615l-.531-.231 1.069-.313 1.785-.543 1.792-.549 1.792-.551 2.24-.687 2.42-.725 2.598-.807 2.688-.832 1.703-.523a65.31 65.31 0 0 1 1.792-.532c.591-.167 1.64-.483 2.33-.702l2.33-.723 3.405-1.05 2.777-.843 2.33-.707 1.434-.434 2.598-.803 2.689-.821 1.792-.541 1.344-.415 5.107-1.562 1.792-.55 2.33-.719a121.4 121.4 0 0 1 2.599-.788l1.792-.534a75.65 75.65 0 0 1 1.523-.456c.592-.171 1.34-.423 1.664-.559s.689-.247.811-.247.826-.193 1.562-.429l3.221-1 2.599-.798 1.792-.547 1.792-.545 2.33-.71 2.329-.72a175.01 175.01 0 0 1 2.599-.801l5.914-1.8a174.43 174.43 0 0 1 2.33-.712l6.72-2.074c1.431-.462 1.608-.383 1.804.804m-136.123 39.906l-1.344.445c-.296.102-1.223.39-2.061.641s-1.663.527-1.834.616-.428.161-.571.161-1.051.245-2.018.543l-2.297.701c-1.278.376-4.87 1.501-5.197 1.628-.197.076-.964.315-1.703.531l-1.882.557-5.286 1.597-2.33.721a126.49 126.49 0 0 1-2.599.8c-.887.263-2.061.633-2.61.822s-1.169.344-1.378.344-.431.081-.492.179-.248.18-.416.18c-.262 0-1.29.312-6.125 1.862-.444.142-1.29.398-1.882.567l-2.778.837-2.24.688-5.197 1.605c-.197.077-.842.274-1.434.438s-1.397.404-1.792.533a45.96 45.96 0 0 1-1.433.435c-.774.218-3.483 1.042-5.646 1.717l-6.81 2.086-4.39 1.351-3.226.987c-.394.112-1.161.343-1.703.514l-1.792.538c-.967.274-3.092.928-6.72 2.067l-3.226.997c-.296.084-1.304.388-2.24.674l-2.173.629c-.258.059-.645.25-.86.424l-.39.316.387.985.526 1.345c.533 1.361 1.369 3.379 1.745 4.211l.801 1.792c2.229 5.053 3.263 6.728 3.985 6.451.203-.078 1.216-.394 2.251-.701l7.617-2.341c.197-.078.721-.24 1.165-.36a51.51 51.51 0 0 0 1.792-.533c.542-.173 1.308-.404 1.702-.513.731-.202 5.729-1.736 6.541-2.008a77.91 77.91 0 0 1 1.793-.542l2.329-.714c.542-.176 1.591-.498 2.33-.716a208.04 208.04 0 0 0 3.791-1.18c1.346-.432 2.577-.785 2.736-.785s.428-.077.599-.171.916-.345 1.655-.557l1.793-.534a121.92 121.92 0 0 1 2.329-.702c1.649-.484 3.185-.965 3.898-1.22.366-.132.256.314-.227.917-.618.773-.618.774-1.538 2.087-.687.982-3.109 4.324-4.285 5.914l-1.621 2.24c-.71.986-1.361 1.819-1.447 1.852s-.156.142-.156.243-.669 1.082-1.487 2.181l-4.982 6.84-1.201 1.652c-.452.59-1.559 2.122-3.613 5l-1.624 2.215c-.059.049-.503.654-.987 1.344s-.928 1.294-.988 1.344-.461.613-.892 1.254-.889 1.272-1.018 1.402c-.525.532-1.308 1.822-1.308 2.154 0 .528 6.864 7.377 10.484 10.462l1.595 1.374c1.443 1.249 1.153 1.442 4.15-2.757l1.394-1.899 1.737-2.42c.329-.483.652-.919.718-.968s.332-.412.592-.807a25.51 25.51 0 0 1 .817-1.165 563.11 563.11 0 0 0 5.216-7.168c.236-.345.476-.668.532-.717s.906-1.218 1.89-2.598l2.005-2.778a93.33 93.33 0 0 0 2.56-3.498c.337-.491.716-.999.844-1.13s.233-.299.233-.375.17-.333.378-.57.953-1.237 1.655-2.223l1.42-1.971a86.36 86.36 0 0 0 .984-1.344c.463-.641.888-1.205.944-1.255s.462-.611.901-1.249l1.011-1.434c.23-.294 1.366-1.851 2.096-2.872l2.934-4.033a47.06 47.06 0 0 0 .987-1.344l.98-1.344c.08-.098.343-.461.584-.806l.579-.807a198.36 198.36 0 0 0 3.361-4.659c.334-.493.657-.937.719-.986s.509-.654.994-1.344l1.024-1.434a458.79 458.79 0 0 0 4.015-5.466l1.953-2.688c.543-.739 1.401-1.949 1.907-2.688s.973-1.384 1.036-1.434.513-.654.999-1.344l1.101-1.523c.245-.305 3.405-4.636 4.893-6.706 1.437-2 1.364-2.219-.538-1.609m34.589-.153c0 .074.142.347.314.607.612.926 1.9 2.755 2.001 2.843.057.049.386.5.731 1.001s.845 1.187 1.112 1.523 1.502 2.024 2.745 3.749l2.598 3.584 1.018 1.397 5.839 8.011c.08.099.543.744 1.03 1.434l1.148 1.613 1.443 1.971 1.398 1.89a39.2 39.2 0 0 1 .835 1.165c.73 1.05 2.619 3.639 2.938 4.028.123.15.498.674.833 1.165s.976 1.382 1.425 1.982l2.071 2.829 1.882 2.595 2.411 3.343 1.304 1.792c.081.098.346.461.588.806a20.45 20.45 0 0 0 .662.896c.122.148.623.834 1.114 1.524l2.336 3.225 2.465 3.405c.561.789 1.071 1.474 1.134 1.524s.531.694 1.043 1.433 1.698 2.393 2.638 3.674l4.413 6.093c.409.592.792 1.116.852 1.165s.505.654.989 1.344.928 1.295.988 1.345c.137.112 2.989 4.097 3.569 4.985.236.363.482.7.546.749s.311.372.549.717c.755 1.095 1.019 1.226 1.532.759a17.31 17.31 0 0 1 .885-.731c.296-.229.82-.672 1.165-.985l2.509-2.213c2.032-1.775 8.423-8.221 8.423-8.495 0-.137-2.18-3.197-2.733-3.835-.085-.1-1.34-1.758-2.789-3.687l-3.572-4.738-3.63-4.838-3.592-4.749c-.055-.05-.293-.372-.53-.717s-.476-.668-.53-.717-.577-.735-1.16-1.523-1.113-1.474-1.176-1.524-.386-.493-.718-.985-.653-.937-.714-.986-.304-.372-.541-.717-.476-.667-.531-.717-.584-.734-1.174-1.523l-1.171-1.523c-.054-.05-.292-.372-.529-.717s-.479-.668-.538-.717-.3-.372-.537-.717-.476-.667-.53-.717-.338-.412-.63-.806-.639-.829-.772-.965c-.379-.39.01-.652.623-.419.781.297 2.861.91 6.237 1.838l4.391 1.25c.246.084 1.033.32 1.747.524l2.554.729 2.509.717 2.464.711 2.285.647 1.882.531 4.659 1.336 2.509.722 2.599.741c.727.197 2.388.68 3.853 1.12l1.613.465 1.881.537 1.882.534c.444.121 1.006.299 1.251.395.657.26 1.538-1.094 3.283-5.051l.891-1.971a163.59 163.59 0 0 0 2.628-6.273c.125-.345.31-.803.412-1.018.269-.568.086-.856-.695-1.095l-4.813-1.452c-.296-.083-1.747-.533-3.226-.998l-6.72-2.067a78.07 78.07 0 0 1-1.792-.538l-1.703-.514c-.394-.113-1.321-.395-2.061-.627l-2.688-.831-2.957-.92c-.887-.283-1.715-.513-1.839-.513s-.367-.074-.538-.164-.916-.34-1.655-.554a98.99 98.99 0 0 1-2.599-.797l-2.598-.802-1.792-.538-1.076-.325-1.971-.577c-.739-.216-1.484-.467-1.655-.558s-.44-.166-.598-.166-1.383-.363-2.724-.806-2.579-.807-2.752-.807-.364-.08-.425-.179-.247-.179-.414-.179-1.029-.23-1.916-.511l-3.494-1.084-4.481-1.377-3.315-1.006a95.34 95.34 0 0 1-2.24-.688l-2.868-.883-2.598-.802-1.972-.61-3.673-1.101c-.247-.081-1.295-.404-2.33-.717l-4.48-1.378-3.137-.967-2.329-.702-2.509-.747c-1.261-.357-3.028-.905-3.674-1.14-1.885-.686-3.227-.964-3.225-.669m-33.536.572l-6.088 8.378-14.588 20.043-3.925 5.428-3.867 5.319-3.259 4.481-2.928 4.032-3.909 5.376-4.633 6.362-4.363 6.004-4.418 6.093-4.497 6.169c-1.502 2.062-2.813 3.776-2.911 3.808-.4.131-5.528-4.504-10.182-9.204-3.247-3.28-3.104-3.053-2.474-3.927l19.541-26.905c8.469-11.614 7.925-10.828 7.719-11.162-.128-.208-.269-.217-.75-.051-.326.113-1.439.461-2.474.775l-3.136.968-2.33.717-1.792.546-1.792.546-1.792.55c-.395.126-1.443.442-2.33.703l-2.33.705-1.792.551-1.792.551-5.466 1.672-2.599.807a49.95 49.95 0 0 1-1.792.546l-1.792.536-1.344.415-2.419.738-2.689.817-2.584.809c-2.693.865-2.395 1.053-4.18-2.639-1.455-3.01-2.663-5.774-4.142-9.475-.359-.9-.653-1.679-.653-1.733 0-.124 1.033-.488 3.405-1.2l2.33-.706 1.523-.459 1.792-.548 2.599-.796 2.33-.718c.246-.084 1.053-.328 1.792-.542l2.598-.788 2.33-.719 1.792-.547 2.33-.718 2.33-.722a66.35 66.35 0 0 1 1.792-.539l1.792-.532 4.391-1.353 3.136-.965 2.33-.717 1.792-.55c.753-.243 3.2-.985 5.914-1.794l2.419-.731 8.423-2.581 2.688-.818 5.825-1.777 2.329-.709 2.33-.718 1.792-.545 1.792-.55 2.33-.723 6.004-1.814c.542-.152 1.268-.376 1.613-.5s1.111-.365 1.702-.537l1.523-.458c.247-.08 1.295-.398 2.33-.708l2.599-.806c.394-.134.978-.296 1.297-.361s.626-.191.683-.282.308-.166.561-.166c.42 0 .438.03.214.348m36.015.169c1.448.481 2.702.868 6.749 2.084l2.33.719c.605.198 2.005.626 5.018 1.534l2.24.688 6.273 1.913 2.598.799 2.42.746 1.344.408 1.792.543 1.792.553a158.71 158.71 0 0 0 2.598.793l2.33.711c.247.083.932.289 1.523.458s1.802.54 2.689.824l2.598.809 1.703.512 1.344.404 5.107 1.553 1.792.555 2.33.723 2.599.792 1.971.576c.345.101.892.295 1.216.431s.689.248.811.248.866.204 1.652.454l2.683.833 2.509.779a88.68 88.68 0 0 0 2.33.707l1.792.535 1.792.553 2.33.722 2.33.709 2.688.811 6.272 1.915 2.151.67c.69.223 1.639.507 2.11.632.988.262 1.137.423.889.957a20.08 20.08 0 0 0-.446 1.103c-.243.651-1.205 3.061-1.574 3.942-.083.198-.397.909-.699 1.581s-.549 1.259-.549 1.304c0 .293-2.954 5.991-3.115 6.008-.395.041-.762-.041-2.441-.545l-2.734-.797-3.538-1.009c-.247-.083-.932-.283-1.523-.444l-1.882-.527-3.853-1.092c-.592-.163-1.277-.364-1.523-.446a39.11 39.11 0 0 0-1.434-.425l-4.212-1.2-1.523-.439-1.882-.543-5.286-1.515-2.509-.719-2.868-.819-3.405-.982a73.05 73.05 0 0 0-1.433-.418l-2.196-.635c-1.789-.53-2.171-.256-1.24.889.278.342 3.601 4.736 7.383 9.763l10.66 14.157 6.774 8.987c1.645 2.182 2.991 4.041 2.991 4.13 0 .657-12.418 12.421-13.111 12.421-.143 0-.978-1.137-14.401-19.624l-26.434-36.38-8.454-11.648-3.593-4.943c-7.866-10.804-7.26-9.658-4.645-8.788m-26.593 8.489c-.483.714-.923 1.339-.978 1.389s-.499.654-.986 1.344l-1.105 1.523c-.121.148-1.27 1.72-2.552 3.495l-2.478 3.405c-.08.098-.343.461-.584.806a26.07 26.07 0 0 1-1.128 1.523c-.23.296-1.098 1.492-1.929 2.659l-2.455 3.405a113.83 113.83 0 0 0-1.771 2.494c-.456.665-.881 1.209-.946 1.209s-.27.262-.457.583-.756 1.147-1.264 1.837l-2.034 2.778-1.354 1.816c-.134.161-.669.927-1.189 1.703s-.995 1.449-1.056 1.498-.428.534-.817 1.076-.789 1.077-.89 1.188-.69.918-1.31 1.792l-3.707 5.114c-.239.292-1.487 2.032-3.173 4.425-.462.655-.927 1.289-1.034 1.41s-.763 1.008-1.459 1.971l-1.523 2.11-3.835 5.287-1.058 1.434-1.011 1.344c-.158.197-.42.58-.582.851s-.359.493-.436.493-.141.084-.141.187-.083.284-.186.403c-.32.373-1.731 2.31-2.704 3.711-.513.739-.982 1.385-1.043 1.434s-.51.654-.997 1.344l-2.736 3.763a34.73 34.73 0 0 0-.756 1.076c-.336.492-.716 1.003-.844 1.133s-.492.615-.808 1.075-.642.919-.724 1.017-.545.744-1.028 1.434-1.002 1.382-1.156 1.538c-.458.466-.323.826.482 1.288.419.24 1.629.973 2.689 1.628s1.974 1.191 2.033 1.191.32.149.582.33c1.224.847 7.671 4.151 8.102 4.151.305 0 1.254-1.174 3.676-4.547l2.497-3.451 1.088-1.49 2.281-3.147 1.694-2.33c.079-.098.342-.461.585-.806s.541-.748.664-.896 1.027-1.398 2.008-2.778l1.951-2.7c.091-.105.8-1.073 1.576-2.15l1.506-2.05c.053-.049.233-.291.4-.537s.528-.748.802-1.115a92.39 92.39 0 0 0 1.469-2.061c.534-.767 1.023-1.434 1.086-1.484s.512-.654.996-1.344 1.252-1.739 1.707-2.332.934-1.276 1.064-1.519.338-.543.462-.667.256-.321.296-.439.187-.17.329-.116c.22.085.267 1.657.314 10.561l.22 23.365.167 25.18c.002 15.436.338 36.566.585 36.872.191.236 15.382.346 15.983.116.394-.152.44-148.1.046-148.1-.13 0-.632.585-1.116 1.3m13.943 72.849l.045 73.97 8.199.046 8.198.047v-47.93l.168-48.034c.092-.057.394.213.672.599a1126.2 1126.2 0 0 0 7.672 10.176c.254.294.682.861 2.951 3.913l3.16 4.199c.207.253 2.127 2.799 4.268 5.658l4.104 5.469c.117.15.451.593.741.986s.577.753.636.803.302.371.539.716.479.668.537.717.302.372.541.717.517.72.618.833.629.817 1.171 1.564c1.234 1.699 1.123 1.699 4.423-.006l3.058-1.568c.221-.108.402-.256.403-.33s.131-.134.289-.134.646-.242 1.084-.538.835-.538.881-.538.615-.322 1.264-.717 1.211-.716 1.249-.716.6-.363 1.248-.807 1.245-.806 1.326-.806c.576 0 .207-1.066-.793-2.289-.363-.444-3.236-4.4-4.195-5.776-.447-.64-.859-1.205-.916-1.254s-.499-.654-.983-1.344-.926-1.295-.984-1.344-.705-.937-1.436-1.972c-1.151-1.627-1.547-2.167-2.299-3.136-.076-.099-.413-.582-.747-1.075s-.654-.937-.709-.986-.376-.493-.712-.986-.703-.976-.818-1.075-.625-.784-1.134-1.523c-1.056-1.536-2.625-3.725-2.955-4.122-.122-.148-.422-.551-.666-.896s-.54-.748-.66-.896-.679-.914-1.243-1.703l-3.517-4.868-2.457-3.405-3.471-4.724c-.116-.151-.571-.796-1.012-1.434s-1.207-1.699-1.703-2.357l-1.438-1.959-1.345-1.849-2.145-2.97-1.444-1.971c-.059-.05-.504-.654-.991-1.344l-1.099-1.524c-.117-.148-.876-1.195-1.685-2.327l-2.564-3.537-1.81-2.493c-.394-.558-.802-1.104-.906-1.212s-.541-.722-.972-1.363-.832-1.205-.892-1.254-.507-.654-.992-1.344-.966-1.346-1.069-1.457-.694-.919-1.314-1.793l-3.676-5.086a20.62 20.62 0 0 1-.663-.94c-.246-.367-.589-.668-.762-.669-.298-.001-.311 3.604-.268 73.968m-12.814 0l-.045 73.611-7.775.047c-5.196.031-7.849-.015-8-.14-.175-.145-.245-3.055-.317-13.129l-1.039-83.065c-.249-.047-2.121 2.359-4.29 5.517-.237.345-.514.719-.616.832-.179.198-2.302 3.114-9.439 12.967l-5.593 7.706-5.009 6.9c-1.572 2.168-2.976 4.037-3.12 4.152-.411.33-6.992-3.115-12.463-6.523-1.728-1.077-1.719-1.063-1.211-1.709.405-.515 4.321-5.893 8.838-12.139l3.973-5.466 17.259-23.729 1.022-1.45c.239-.345 1.532-2.119 2.873-3.943l4.768-6.541 3.579-4.928 2.468-3.405 7.099-9.767 6.326-8.737c.245-.37.516-.672.602-.672s.136 32.064.11 73.611m16.625-68.951l3.053 4.211 3.071 4.211 4.167 5.746 7.269 10.012 7.803 10.742 6.793 9.343 7.56 10.394 5.205 7.169 10.645 14.756c.178.462-5.116 3.621-11.615 6.932-1.156.589-2.139 1.071-2.184 1.071s-1.916-2.439-4.159-5.421l-5.713-7.571-15.468-20.52c-1.958-2.606-3.417-4.391-3.592-4.391-.271 0-.3 3.689-.383 47.998l-.089 47.998-7.886-.003-7.885-.004-.035-73.711.307-73.264c.188.247 1.599 2.182 3.136 4.302M95.399 345.116h17.742c4.847-.026.829-.048-8.93-.048l-8.812.048m53.763 0h17.742c4.847-.026.829-.048-8.929-.048l-8.813.048m-50.33 33.827l.048 9.798v-19.714c-.026-5.388-.048-.927-.048 9.916m-62.586-8.423c.002.394.039.534.081.311s.042-.545-.003-.717-.08.011-.078.406m-.004 3.136c0 .345.037.486.082.314a1.48 1.48 0 0 0 0-.628c-.045-.172-.082-.031-.082.314" fill="#54a9d0"/><path d="M1.901 307.273c-.269.7-.117 16.7.159 16.806.726.278 19.591.122 19.878-.164.372-.372.438-16.342.069-16.711s-19.963-.304-20.106.069m19.786.254l.001 8.064-.001 8.065c-.002.117-3.379.179-9.769.179H2.151v-8.244-8.243h9.767c6.39 0 9.767.062 9.769.179m334.406 18.867c-.049.052-1.138.151-2.419.221s-2.394.166-2.473.213-.805.154-1.613.238a38.29 38.29 0 0 0-4.427.711c-.443.101-1.088.229-1.433.286s-.749.15-.896.207-.753.243-1.345.414c-3.662 1.055-8.176 3.155-10.152 4.721-.262.207-.745.574-1.075.815-1.915 1.401-5.887 6.057-5.887 6.901 0 .152-.061.278-.135.28-.12.002-.776 1.303-1.128 2.237l-.373.986c-.131.345-.252.708-.269.806s-.197.784-.398 1.523-.411 1.656-.467 2.037-.145.763-.198.848c-.277.449-.076 6.313.274 7.996.48 2.306.857 3.663 1.08 3.885.099.099.18.366.18.593s.081.412.179.412.179.105.179.233c0 .33.422 1.198.583 1.199.074.001.134.127.134.28 0 .649 2.714 4.15 4.308 5.557l.889.804c.632.693 3.676 2.468 5.969 3.48 1.368.604 6.972 2.628 7.842 2.832 1.042.245 2.616.695 2.946.842.197.089.6.199.896.246s1.183.26 1.971.474c1.556.422 3.891.989 5.914 1.437l3.002.695c.37.09.672.115.672.056s.097-.01.215.109.397.215.618.215.872.13 1.443.289 1.262.329 1.534.379.539.161.593.249.276.158.494.158.837.167 1.378.371l1.7.629c.942.339 2.314 1.026 2.389 1.195.033.074.159.135.279.135.434 0 2.609 1.981 3.095 2.818.273.471.559.883.637.915s.141.22.141.415.086.516.191.712c.274.512.268 3.521-.009 4.37-.429 1.315-2.356 3.641-3.273 3.95-.173.058-.314.167-.314.241 0 .194-2.213 1.186-3.584 1.606-5.377 1.648-12.304.823-16.129-1.92-1.874-1.343-4.301-4.723-4.301-5.988 0-.16-.121-.756-.269-1.324s-.269-1.333-.269-1.702c0-.993.434-.964-12.845-.867l-12.334.089.051 1.882c.118 4.306 1.147 8.483 3.003 12.186.347.692 1.549 2.726 1.694 2.868.051.049.327.412.614.806 3.448 4.737 10.1 8.511 18.294 10.378.69.157 1.617.332 2.061.389a22.74 22.74 0 0 1 1.909.362c.607.143 1.333.244 1.613.226s1.115.077 1.854.211c1.755.32 15.358.352 16.846.04a24.18 24.18 0 0 1 2.236-.321c.687-.063 1.388-.189 1.556-.279a1.98 1.98 0 0 1 .777-.164c.596 0 3.84-.695 4.255-.912a1.69 1.69 0 0 1 .663-.163c.194 0 .538-.075.764-.167s.977-.337 1.666-.544 1.457-.465 1.703-.573.609-.259.806-.334.81-.346 1.362-.603 1.097-.467 1.21-.467.206-.081.206-.179.118-.179.261-.179.671-.242 1.173-.538.953-.538 1.003-.538c.493 0 4.968-3.49 6.264-4.885 1.688-1.818 3.306-3.975 3.306-4.409a.27.27 0 0 1 .152-.234c.841-.33 2.917-7.15 2.871-9.43-.014-.662-.055-1.001-.092-.755-.992 6.643-2.643 10.561-5.934 14.081-5.675 6.07-13.381 9.411-25.85 11.206-2.141.309-13.173.424-15.474.163l-3.343-.362c-1.832-.186-3.681-.482-5.018-.805l-1.971-.454c-8.935-1.959-16.057-7.156-19.408-14.161-1.628-3.403-2.934-9.03-2.784-11.998l.059-1.165 12.231-.046c9.724-.036 12.233.001 12.238.18.19 6.308 4.107 10.606 11.142 12.224 1.669.384 6.959.384 8.464-.001 6.375-1.63 9.42-4.474 9.42-8.798 0-4.891-3.091-7.692-10.932-9.909l-1.882-.535a46.38 46.38 0 0 0-1.881-.457 55.84 55.84 0 0 1-2.256-.557c-.502-.14-1.059-.255-1.239-.255s-.737-.115-1.239-.256-2.323-.594-4.048-1.006-3.821-.95-4.659-1.196l-2.061-.581c-.79-.199-4.926-1.61-5.583-1.905-.31-.139-.677-.253-.815-.253s-.328-.064-.421-.143-.654-.335-1.246-.57c-10.168-4.031-15.426-14.113-13.359-25.613.166-.921 1.171-4.286 1.45-4.857 2.627-5.353 5.026-8.095 9.49-10.842 2.765-1.701 5.695-2.897 10.036-4.096 7.405-2.046 21.303-2.579 28.405-1.091.69.145 1.437.262 1.66.261.404-.002 1.904.344 3.447.795l1.613.456c1.334.363 4.091 1.416 5.551 2.12 6.361 3.069 10.639 8.049 12.187 14.19.578 2.294 1 6.563.769 7.775l-.09.471-12.3-.046-12.3-.046-.201-1.524c-.731-5.537-5.432-8.781-12.726-8.781-2.699 0-2.809.017-5.352.841-2.875.931-5.479 3.646-6.023 6.28-.956 4.631 2.923 8.253 11.31 10.559l4.39 1.152 1.972.444 4.48.975c.394.079 1.241.267 1.882.418l2.329.545c13.591 3.168 21.238 8.252 24.027 15.972.721 1.998 1.107 3.634 1.522 6.452.392 2.665.393 2.666.416 1.365.052-2.842-1.932-9.996-2.88-10.385-.08-.033-.146-.215-.146-.404s-.075-.343-.167-.343-.218-.161-.28-.357a1.81 1.81 0 0 0-.326-.583c-.117-.124-.553-.673-.969-1.221-3.066-4.034-8.654-7.318-16.12-9.472-1.397-.403-2.703-.733-2.902-.733s-.411-.08-.472-.179-.293-.179-.516-.179-.763-.112-1.2-.248-1.6-.425-2.585-.641l-2.44-.559c-.357-.091-.835-.165-1.063-.165s-.662-.079-.965-.175c-.654-.207-2.574-.691-3.642-.918-1.757-.373-2.317-.502-2.912-.673l-1.075-.298c-.246-.064-.609-.184-.806-.267s-.843-.287-1.434-.454-1.338-.415-1.658-.551c-2.768-1.179-2.714-1.152-3.88-1.926-1.152-.765-2.549-2.129-2.715-2.652-.058-.182-.18-.33-.272-.33s-.167-.148-.167-.328-.06-.389-.134-.462c-.278-.276-.492-2.352-.335-3.242.402-2.27 2.266-4.408 4.97-5.7 1.609-.769 1.973-.877 4.012-1.193 1.106-.172 4.615-.058 5.466.177a5.53 5.53 0 0 0 1.199.174c.314 0 .621.081.682.18s.231.179.378.179.601.162 1.009.359.839.358.958.358.262.121.319.269.229.269.383.269c.31 0 2.778 2.361 2.778 2.657 0 .101.108.293.241.425.442.442 1.039 2.369 1.128 3.638.048.69.188 1.357.31 1.483.237.242 24.65.361 25.037.122.229-.142.196-4.699-.043-5.921l-.356-1.867c-.101-.542-.258-1.125-.347-1.297s-.164-.509-.164-.751-.081-.489-.179-.55-.179-.225-.179-.365c0-1.206-3.192-5.99-5.226-7.833-1.367-1.238-3.737-2.994-4.048-2.999-.124-.002-.224-.065-.224-.139 0-.377-5.161-2.665-7.617-3.376-.893-.258-1.111-.317-3.315-.892-.641-.167-1.609-.368-2.151-.447l-1.658-.245a67.97 67.97 0 0 0-2.822-.37l-1.613-.181c-1.182-.136-10.648-.328-10.753-.218m-275.896.875c-5.153.391-7.938.742-11.29 1.422-1.729.351-4.373 1.026-4.616 1.178-.122.077-.425.164-.671.193s-.609.127-.806.216-.681.26-1.076.379a15.65 15.65 0 0 0-1.433.529l-2.151.914c-.788.331-1.796.823-2.24 1.094s-1.089.635-1.434.809-.654.376-.687.45-.135.135-.228.135c-.178 0-1.151.649-2.938 1.959-1.34.983-5.371 5.022-6.092 6.105-.296.444-.585.847-.644.896-.232.197-1.398 1.995-1.624 2.505-.132.298-.301.542-.375.542s-.136.155-.136.343-.06.371-.134.404c-.191.085-1.299 2.432-1.299 2.751 0 .146-.081.265-.18.265s-.179.097-.179.216-.271.944-.602 1.836c-1.006 2.713-1.409 4.078-1.722 5.834l-.417 2.329c-.762 4.239-1.182 11.923-.818 14.957.072.596.147 1.768.168 2.606.035 1.38.228 2.938.711 5.735l.274 1.702c.057.395.167.879.243 1.076s.275.882.44 1.523c.372 1.441.554 2.063.838 2.867l.343.986c.067.197.297.721.512 1.165s.389.948.389 1.12.08.314.179.314.179.109.179.244.323.831.717 1.548.717 1.341.717 1.386c0 .092 1.993 3.134 2.144 3.273.054.05.334.412.623.807.801 1.094 3.633 3.962 4.939 5.001 1.504 1.197 4.061 2.974 4.28 2.974.094 0 .197.072.23.16s1.108.656 2.389 1.262l2.641 1.274c.172.094.401.171.511.171s.453.119.764.264c1.094.511 3.617 1.347 4.068 1.348.252.001.534.069.628.151s.654.252 1.245.376 1.261.298 1.487.387a2.89 2.89 0 0 0 .883.162c.26 0 .72.076 1.022.168s1.236.261 2.074.375l1.971.28c.247.04.973.116 1.613.169 1.747.145 2.905.278 3.405.391.973.22 43.569.257 43.832.039.348-.289.386-58.745.039-59.092-.276-.276-23.716-.315-23.886-.04-.06.097-.104 9.422-.099 20.724l-.193 20.792c-.243.293-11.75.334-14.316.051-2.576-.284-3.13-.375-3.307-.542-.093-.088-.341-.161-.551-.161-.626 0-3.658-1.107-4.993-1.823-1.204-.646-2.877-1.641-2.977-1.771-.05-.063-.251-.201-.448-.305-2.44-1.287-6.523-6.522-8.071-10.348-.261-.646-.401-1.059-.973-2.867-1.609-5.088-1.597-13.733.026-18.907.69-2.202.65-2.102 1.849-4.525.573-1.158 1.104-2.106 1.181-2.106s.19-.161.253-.357.209-.459.326-.583.439-.507.714-.852c1.323-1.659 1.737-2.092 2.903-3.033 1.563-1.263 3.085-2.343 3.3-2.343.091 0 .191-.064.224-.141.202-.477 6.045-2.727 7.08-2.727.216 0 .58-.07.809-.156s.989-.209 1.69-.274 1.468-.175 1.703-.244 8.772-.145 18.973-.171l18.772-.132c.238-.092.351-16.949.118-17.557-.122-.317-38.729-.385-42.813-.075m59.176-.095c-.069.069-.126 4.104-.126 8.967v8.841l.404.003 17.898-.003 18.728.165a69.16 69.16 0 0 0 2.486.289c.69.066 1.72.225 2.289.355s1.075.234 1.126.232c1.174-.052 7.233 2.761 8.471 3.932.13.123.311.224.401.224.263 0 4.019 3.796 4.389 4.436.186.32.4.582.478.582s.14.106.14.235.141.394.314.587.471.673.664 1.065.501.933.685 1.205.278.492.211.492.004.195.16.432c.487.743 1.554 4.172 1.901 6.11.437 2.438.513 3.382.535 6.637.023 3.277-.156 5.146-.728 7.61-.102.443-.229 1.109-.281 1.48s-.166.717-.254.772-.16.253-.16.442c0 .32-.441 1.424-1.01 2.531-.134.261-.245.559-.245.662 0 .279-1.942 3.588-2.33 3.97-.05.049-.323.412-.606.806-.431.599-3.119 3.315-3.91 3.95-1.566 1.257-6.034 3.666-6.8 3.666a.76.76 0 0 0-.431.149c-.252.219-2.142.717-3.933 1.036-.395.07-.838.165-.986.211-.422.131-14.31.263-14.797.141l-.436-.11v-20.659l-.215-20.875c-.228-.228-23.29-.331-23.874-.106-.257.098-.284 2.878-.284 29.656v29.547l.415.104c.847.213 42.966-.027 44.747-.254l6.989-.925c3.87-.614 9.133-2.038 10.842-2.935.296-.155.61-.282.699-.283.277-.002 4.957-2.275 5.126-2.489.049-.063.397-.275.773-.471s.837-.498 1.023-.67.408-.314.492-.314.309-.143.5-.318a11.68 11.68 0 0 1 .975-.757c1.042-.728 3.228-2.788 4.768-4.495 1.322-1.465 3.265-4.299 4.105-5.989.196-.394.417-.744.491-.777s.134-.13.134-.216.233-.663.518-1.284c.869-1.893 1.199-2.706 1.443-3.547a26.5 26.5 0 0 1 .483-1.489 8.76 8.76 0 0 0 .354-1.344c.057-.364.165-.743.239-.841.228-.301.696-2.691 1.15-5.866 1.051-7.356.681-18.036-.824-23.794-.194-.739-.393-1.607-.443-1.928s-.164-.628-.251-.682-.16-.297-.16-.539-.071-.58-.159-.751-.342-.876-.566-1.566c-.745-2.3-2.308-5.549-3.416-7.106-.187-.262-.339-.537-.339-.611 0-.643-4.159-5.328-6.354-7.157l-1.061-.907c-.327-.309-3.492-2.409-3.63-2.409-.07 0-.255-.109-.411-.243-.527-.453-4.66-2.445-5.074-2.445-.134 0-.321-.067-.415-.15-.173-.153-2.495-1.017-4.113-1.53-1.142-.363-5.126-1.301-6.182-1.456l-1.703-.26c-1.74-.274-5.575-.716-7.168-.826-2.31-.16-43.719-.297-43.871-.145m116.718.469c-.195.321-.483 1.021-.639 1.557s-.428 1.301-.603 1.702-.461 1.092-.634 1.535l-.456 1.165c-.077.197-.317.842-.533 1.434l-.537 1.434c-.079.197-.398 1.043-.709 1.881s-.641 1.664-.735 1.835-.17.433-.17.581-.282.882-.627 1.629-.628 1.412-.628 1.479c-.001.129-.979 2.742-1.253 3.347-.089.197-.279.722-.423 1.165-.365 1.129-.828 2.362-1.028 2.735-.092.174-.294.698-.447 1.165a19.02 19.02 0 0 1-.624 1.609c-.19.418-.346.865-.346.995a.73.73 0 0 1-.143.405c-.078.093-.246.493-.373.887s-.386 1.059-.574 1.476-.344.883-.344 1.033-.074.413-.164.585a14.79 14.79 0 0 0-.823 2.013c-.073.247-.191.529-.263.628s-.276.622-.453 1.164a25.6 25.6 0 0 1-.548 1.524c-.714 1.705-1.154 2.864-1.154 3.044 0 .112-.153.521-.34.91s-.555 1.349-.819 2.136-.544 1.513-.622 1.613-.244.505-.368.899-.295.793-.381.887-.158.34-.158.547-.07.453-.155.546-.255.453-.379.798l-.848 2.329c-.344.937-.666 1.884-.717 2.106s-.165.403-.252.403-.16.182-.164.404-.124.559-.268.751-.264.518-.264.726-.064.454-.143.548-.326.654-.55 1.245-.482 1.216-.573 1.387-.167.418-.167.548-.162.572-.359.98-.358.862-.358 1.009-.081.316-.179.377-.18.269-.18.461-.073.491-.162.662-.377.835-.64 1.476l-.631 1.523c-.085.197-.326.842-.537 1.434l-1.96 5.264a1.81 1.81 0 0 0-.191.713c0 .195-.083.382-.184.416s-.226.3-.279.592-.158.614-.234.715-.401.911-.723 1.798-.691 1.855-.823 2.151-.294.76-.362 1.032-.195.539-.283.593-.159.256-.159.449a1.72 1.72 0 0 1-.159.661c-.172.338-.699 1.633-1.184 2.91-.169.443-.379.946-.467 1.117s-.161.458-.161.637-.067.401-.149.495c-.267.304-.927 2.088-.927 2.505 0 .62-.172.611 11.876.619 12.215.009 12.139.014 12.139-.906 0-.192.076-.49.169-.661.19-.348 1.225-3.492 1.697-5.15a16.56 16.56 0 0 1 .564-1.664c.142-.324.258-.708.258-.854s.071-.405.158-.576c.236-.464 1.276-3.778 1.276-4.066 0-.137.113-.477.251-.756.31-.629.645-1.696.645-2.06 0-.903-.673-.869 17.847-.877l17.189-.006.313.386c.173.213.314.502.314.643 0 .255 1.109 3.588 1.422 4.274.09.197.2.56.245.807.069.375.702 2.318 1.198 3.673.073.198.639 1.918 1.26 3.824s1.244 3.581 1.387 3.724c.323.323 26.41.297 26.734-.027.128-.128-.015-.685-.46-1.792l-1.317-3.399c-.215-.591-.465-1.215-.555-1.386a1.7 1.7 0 0 1-.165-.672c0-.199-.071-.361-.158-.361s-.2-.182-.25-.403c-.134-.595-1.249-3.615-1.373-3.719-.058-.049-.29-.672-.515-1.384s-.486-1.341-.58-1.399-.17-.242-.17-.409-.249-.948-.554-1.736l-.694-1.793-1.536-3.942a26.93 26.93 0 0 1-.44-1.165c-.268-.772-.532-1.425-.74-1.835-.087-.171-.159-.473-.159-.672s-.08-.36-.179-.36-.179-.135-.179-.299c0-.301-.623-1.996-1.701-4.63-.323-.788-.77-1.956-.992-2.594a33.97 33.97 0 0 0-.68-1.792c-.151-.347-.296-.749-.322-.893a3.19 3.19 0 0 0-.22-.627 26.67 26.67 0 0 1-.565-1.441c-.529-1.445-.705-1.88-1.003-2.479-.138-.279-.252-.657-.252-.841s-.08-.383-.179-.444-.179-.228-.179-.371-.154-.602-.343-1.02-.558-1.364-.823-2.103c-1.344-3.763-2.36-6.386-2.793-7.211a1.69 1.69 0 0 1-.163-.662c0-.192-.081-.4-.179-.461s-.179-.231-.179-.377-.162-.601-.359-1.009-.358-.849-.358-.98-.08-.377-.178-.548c-.15-.264-1.734-4.372-2.415-6.267-.115-.319-.264-.634-.331-.702s-.123-.306-.123-.53-.072-.452-.159-.506-.215-.321-.283-.593-.231-.737-.363-1.033-.534-1.344-.895-2.329-.73-1.869-.822-1.963-.166-.316-.166-.495-.093-.505-.207-.726c-.418-.807-.51-1.027-.51-1.213 0-.105-.161-.524-.358-.932s-.358-.828-.358-.933-.248-.835-.553-1.624l-.997-2.598a41.2 41.2 0 0 0-.768-1.882 13.76 13.76 0 0 1-.561-1.523c-.13-.444-.342-.966-.471-1.16s-.236-.477-.236-.627-.122-.505-.269-.787-.268-.65-.268-.816-.07-.379-.157-.472-.334-.653-.551-1.244-.478-1.174-.582-1.299c-.148-.179-3.213-.226-14.594-.226h-14.408l-.355.582m-133.331 8.468v8.692h-18.584c-18.64 0-19.99.038-22.904.653-7.537 1.59-13.651 6.259-16.854 12.872-.537 1.109-.977 2.109-.977 2.223a1.48 1.48 0 0 1-.157.518c-1.377 2.731-2.168 11.074-1.49 15.723.462 3.162 1.203 5.884 2.212 8.122.28.623.51 1.169.51 1.213 0 .243 1.827 3.054 2.785 4.285 3.465 4.449 8.893 7.732 14.697 8.888 1.127.224 15.756.515 16.568.329l.448-.103.09-20.775.09-20.776 11.783-.046 11.783-.046v29.392 29.392l-20.565.001c-20.979.001-23.592-.068-27.912-.738l-2.33-.336c-2.181-.287-6.001-1.145-8.154-1.831-3.232-1.03-3.802-1.259-6.81-2.731-9.108-4.457-14.987-11.468-18.045-21.516-.535-1.76-.65-2.232-1.198-4.928-1.403-6.91-1.405-18.963-.005-25.012.139-.597.252-1.237.252-1.421s.073-.582.163-.884l.469-1.626c3.242-11.358 10.229-19.448 20.336-23.544l1.344-.547.896-.368c1.055-.434 1.959-.706 4.928-1.482 4.164-1.089 8.816-1.77 14.247-2.086 1.38-.08 11.481-.157 22.447-.172l19.937-.027v8.692m60.036-8.419c3.924.252 6.772.566 8.781.97l1.971.386c12.083 2.311 21.283 8.411 26.615 17.647.541.938.984 1.742.984 1.788s.229.587.51 1.203c.842 1.853 1.503 3.605 1.874 4.973.928 3.415 1.024 3.841 1.453 6.452 1.29 7.855 1.082 17.402-.539 24.731-.261 1.179-.358 1.56-.887 3.495-.414 1.513-1.017 3.118-1.901 5.063-.281.616-.51 1.158-.51 1.203 0 .147-1.908 3.381-2.584 4.38-3.47 5.129-9.331 9.738-15.516 12.204l-3.002 1.146a25.31 25.31 0 0 1-1.837.557 30.2 30.2 0 0 0-1.613.467c-.246.087-.811.23-1.254.317-10.171 1.993-10.273 1.999-35.171 1.996l-20.564-.003v-29.391-29.391h11.828 11.828l.002 20.654.154 20.893c.229.36 14.689.303 16.54-.065 1.762-.351 3.429-.839 5.436-1.592 9.604-3.602 15.4-13.324 15.395-25.822-.005-13.053-5.885-22.121-16.649-25.675-4.45-1.469-4.502-1.472-25.941-1.474l-18.593-.001v-8.692-8.692l19.579.008 23.611.265m102.453-.049c.163.219.52 1.065 1.021 2.42l1.097 2.912.853 2.24.559 1.479.538 1.433a100.01 100.01 0 0 0 1.097 2.823c.123.296.561 1.465.975 2.598s.983 2.626 1.265 3.316.914 2.349 1.406 3.686l1.547 4.122 1.457 3.796.436 1.12c.08.197.4 1.044.712 1.882l1.902 4.955c.134.311.244.677.244.815s.071.328.158.421.324.654.529 1.246.543 1.519.752 2.061l.536 1.433a33.69 33.69 0 0 0 .848 2.151c.11.246.538 1.375.951 2.509l.973 2.598a60.63 60.63 0 0 1 .496 1.255l.582 1.523 1.076 2.868a126.01 126.01 0 0 0 .713 1.881l1.257 3.316c.341.935.824 2.167 1.1 2.805.134.31.244.677.244.815s.071.327.158.421.324.654.529 1.246.543 1.518.752 2.06.446 1.188.525 1.434c.136.42.385 1.05.745 1.882.171.393 2.378 6.199 2.794 7.348a215.11 215.11 0 0 0 1.431 3.763l.855 2.24a16.77 16.77 0 0 0 .56 1.315c.426.85.646.836-13.092.836h-13.144l-.835-2.644-1.075-3.27c-.132-.345-.82-2.442-1.529-4.66l-1.54-4.621c-.138-.323-.252-.726-.252-.896s-.161-.569-.356-.89l-.355-.582-17.431.003-17.631.134c-.11.073-.381.696-.601 1.386l-.541 1.613c-.077.197-.38 1.125-.673 2.061l-2.378 7.437c-.078.197-.4 1.206-.713 2.24l-.73 2.285-.16.404h-11.553c-11.604 0-12.073-.025-11.581-.618.111-.134.273-.473.36-.754s.33-.954.539-1.496l.751-2.035c.204-.577.482-1.263.617-1.523s.248-.576.249-.7.073-.367.162-.538c.149-.289.284-.633 1.004-2.551l1.089-2.778c.131-.296.57-1.465.977-2.599.68-1.892 1.213-3.297 1.599-4.211.176-.419 1.013-2.649 1.715-4.57l.712-1.882c.279-.677.829-2.119 1.881-4.928.314-.838.684-1.778.824-2.088s.253-.655.253-.764.072-.34.161-.511.281-.634.428-1.028l1.675-4.328c.135-.311.245-.678.245-.815s.069-.328.155-.421.238-.413.341-.708c.455-1.308 4.072-10.899 4.326-11.47.087-.197.414-1.044.727-1.881l.825-2.196.974-2.554.426-1.12 1.106-2.912.987-2.598 1.283-3.405 1.319-3.405c.131-.296.695-1.788 1.254-3.316l1.242-3.315c.257-.612 1.071-2.767 1.795-4.749l.712-1.882c.342-.831.767-1.938.876-2.285.129-.408 28.604-.496 28.908-.09M0 374.174l.283 42.742c.648.249 23.321.119 23.531-.134.287-.346.285-84.654-.002-85-.164-.197-2.346-.241-12.006-.241H0v42.633m23.566.055v42.348H11.918.269l-.045-42.283.117-42.384c.09-.055 5.352-.084 11.694-.065l11.531.035v42.349m245.801-28.911a1.83 1.83 0 0 0-.191.721c0 .201-.114.629-.253.953s-.716 2.04-1.283 3.814l-2.047 6.362-2.05 6.362-1.267 3.854a111.74 111.74 0 0 0-.998 3.046l-1.527 4.749c-1.625 4.97-2.083 6.542-1.981 6.807.093.244 1.414.269 11.625.229l11.519-.047-.037-.789a7.16 7.16 0 0 0-.313-1.612c-.152-.454-.64-2.074-1.083-3.602l-.97-3.316-1.578-5.286-.511-1.703c-.124-.394-.359-1.201-.524-1.792s-.367-1.277-.45-1.523-.285-.932-.45-1.523l-.524-1.793-.522-1.747-.593-2.061-.521-1.747c-.124-.394-.36-1.201-.524-1.792s-.367-1.277-.45-1.524-.287-.931-.453-1.523l-.536-1.882-.388-1.344c-.188-.659-.834-.827-1.12-.291m.969.868c.069.367.228.992.353 1.389a56.67 56.67 0 0 1 .426 1.439c.308 1.115 1.246 4.279 1.911 6.452l.978 3.315.709 2.42a66.07 66.07 0 0 1 .557 1.881l.361 1.255.534 1.792 1.638 5.388c.183.549.333 1.135.333 1.302s.071.444.157.615c.153.302.265.666.732 2.372.122.444.294.947.383 1.118a1.6 1.6 0 0 1 .162.615c0 .166.078.551.174.853.784 2.479.922 3.015.834 3.245s-1.622.263-11.223.263c-12.378 0-11.6.085-11.064-1.22.404-.983 2.471-7.436 2.466-7.699-.002-.124.071-.366.162-.537s.345-.876.564-1.566.506-1.508.64-1.819.243-.695.243-.854.074-.429.166-.6.405-1.077.698-2.014l2.538-7.885c.467-1.191 1.078-3.17 1.078-3.49 0-.153.08-.418.179-.589.259-.451 1.971-5.807 1.971-6.168 0-.168.081-.355.18-.416s.179-.273.179-.47c0-1.084.792-1.396.981-.387m101.08 72.803c-.296.082-1.748.325-3.226.54s-3.051.475-3.495.577a16.52 16.52 0 0 1-1.433.258c-.345.04-1.071.148-1.613.241l-3.943.632c-.345.053-.99.138-1.434.19s-1.008.141-1.254.197-.972.167-1.613.248a53.1 53.1 0 0 0-2.24.34c-.592.105-1.479.238-1.971.294s-1.179.177-1.524.267-.952.165-1.349.165c-1.032.001-1.534.4-1.419 1.128l.179 1.203c.049.345.13.742.18.882s.14.705.199 1.255.177 1.186.263 1.414.155.611.155.851c0 .491.938.612 2.048.264.54-.169 3.264-.635 5.389-.923 1.46-.197 4.42-.671 7.796-1.248 2.038-.348 3.348-.539 4.391-.639.591-.057 1.211-.176 1.377-.263s.569-.161.896-.163 1.239-.123 2.028-.27 1.796-.308 2.24-.359c3.107-.354 2.971-.105 2.307-4.206l-.307-2.061-.118-.896-.986-.033c-.542-.018-1.228.034-1.523.115m2.284.424c.04.116.094.613.12 1.105s.089.963.141 1.046c.209.338.568 3.608.407 3.708-.092.057-.794.202-1.56.323l-2.916.472-3.405.541-3.405.539-3.405.539-9.082 1.445c-.806.143-1.703.26-1.994.26s-.877.123-1.303.274c-1.025.361-1.173.274-1.294-.752-.091-.777-.446-2.976-.766-4.746-.13-.724-.157-.709 1.715-.957.444-.059 1.492-.22 2.33-.359l2.778-.434 9.229-1.466c.641-.112 1.447-.235 1.792-.274s1.373-.192 2.285-.341l3.315-.53 3.092-.506c1.496-.255 1.806-.237 1.926.113" fill="#4e6c9b"/><path d="M221.905 19.892c0 .345.037.487.082.314s.045-.455 0-.627-.082-.032-.082.313m.008 8.065c0 .444.035.625.077.403s.043-.584 0-.806-.077-.041-.077.403m-44.97 174.104c.001.788.032 1.089.07.667a9.01 9.01 0 0 0-.001-1.433c-.039-.367-.069-.023-.069.766m77.106 6.155c-.057.093.028.22.189.282.396.152.489.025.173-.237-.153-.128-.299-.146-.362-.045m19.461 2.827a.65.65 0 0 1 .393.393c.066.219.081.204.054-.054-.021-.209-.184-.372-.393-.393-.258-.026-.273-.012-.054.054m104.94 143.034h11.559c3.179-.027.578-.05-5.78-.05l-5.779.05" fill="#049cd4"/></svg>